<?xml version="1.0" encoding="utf-8"?>
<!-- Generator: Adobe Illustrator 15.0.0, SVG Export Plug-In . SVG Version: 6.00 Build 0)  -->
<!DOCTYPE svg PUBLIC "-//W3C//DTD SVG 1.1//EN" "http://www.w3.org/Graphics/SVG/1.1/DTD/svg11.dtd">
<svg version="1.1" id="Calque_1" xmlns="http://www.w3.org/2000/svg" xmlns:xlink="http://www.w3.org/1999/xlink" x="0px" y="0px"
	 width="80px" height="80px" viewBox="0 0 80 80" enable-background="new 0 0 80 80" xml:space="preserve">
<g>
	<g>
		<g>
			<path fill="#FFFFFF" d="M-157.979,195.512c16.395,0,29.685-13.291,29.685-29.684c0-16.395-13.29-29.685-29.685-29.685
				s-29.684,13.29-29.684,29.685C-187.664,182.221-174.375,195.512-157.979,195.512"/>
		</g>
	</g>
</g>
<g>
	<path fill="#B969A8" d="M-172.707,175.621l5.067-9.381l-4.76-8.875h4.592l1.597,3.443c0.205,0.43,0.41,0.882,0.615,1.357
		c0.205,0.477,0.438,1.004,0.7,1.582h0.112c0.205-0.578,0.406-1.105,0.602-1.582c0.196-0.476,0.388-0.928,0.574-1.357l1.456-3.443
		h4.396l-4.731,9.071l5.04,9.185h-4.592l-1.82-3.725c-0.224-0.484-0.443-0.966-0.658-1.441c-0.215-0.477-0.452-0.994-0.714-1.555
		h-0.112c-0.205,0.561-0.41,1.078-0.615,1.555c-0.206,0.476-0.411,0.957-0.616,1.441l-1.708,3.725H-172.707z"/>
	<path fill="#B969A8" d="M-152.212,175.957c-0.858,0-1.638-0.168-2.338-0.504s-1.298-0.816-1.792-1.442s-0.877-1.386-1.147-2.282
		c-0.271-0.896-0.406-1.913-0.406-3.052s0.163-2.156,0.49-3.052c0.326-0.896,0.756-1.656,1.288-2.282
		c0.531-0.626,1.147-1.106,1.848-1.442s1.414-0.504,2.142-0.504c0.784,0,1.429,0.131,1.933,0.393s0.998,0.615,1.483,1.063
		l-0.168-2.128v-4.732h4.116v19.629h-3.36l-0.279-1.373h-0.112c-0.485,0.486-1.055,0.893-1.708,1.219
		S-151.539,175.957-152.212,175.957z M-151.147,172.597c0.448,0,0.854-0.093,1.218-0.28c0.364-0.186,0.714-0.514,1.05-0.98v-5.684
		c-0.373-0.336-0.756-0.568-1.147-0.699c-0.393-0.131-0.775-0.196-1.148-0.196c-0.653,0-1.231,0.312-1.735,0.938
		c-0.505,0.625-0.757,1.6-0.757,2.926c0,1.381,0.22,2.389,0.658,3.023S-151.95,172.597-151.147,172.597z"/>
</g>
<g>
	<path fill="#B969A8" d="M-157.979,192.137c-14.507,0-26.309-11.803-26.309-26.309c0-14.507,11.802-26.309,26.309-26.309
		c1.121,0,2.03,0.908,2.03,2.029s-0.909,2.029-2.03,2.029c-12.269,0-22.25,9.981-22.25,22.25c0,12.268,9.981,22.248,22.25,22.248
		s22.25-9.98,22.25-22.248c0-5.943-2.314-11.53-6.517-15.732c-0.792-0.793-0.792-2.078,0-2.871c0.793-0.792,2.078-0.792,2.871,0
		c4.969,4.969,7.705,11.576,7.705,18.604C-131.67,180.334-143.472,192.137-157.979,192.137z"/>
</g>
<g>
	<g>
		<g>
			<g>
				<path fill="#FFFFFF" d="M40,69.512c16.396,0,29.685-13.291,29.685-29.684c0-16.395-13.289-29.685-29.685-29.685
					s-29.684,13.29-29.684,29.685C10.316,56.221,23.604,69.512,40,69.512"/>
			</g>
		</g>
	</g>
	<g>
		<path fill="#B969A8" d="M25.272,49.621l5.067-9.38l-4.76-8.876h4.592l1.597,3.444c0.205,0.43,0.41,0.882,0.615,1.358
			s0.438,1.004,0.7,1.582h0.112c0.205-0.578,0.406-1.106,0.602-1.582c0.196-0.476,0.388-0.928,0.574-1.358l1.456-3.444h4.396
			l-4.731,9.072l5.04,9.185H35.94l-1.82-3.725c-0.224-0.484-0.443-0.966-0.658-1.441c-0.215-0.477-0.452-0.994-0.714-1.555h-0.112
			c-0.205,0.561-0.41,1.078-0.615,1.555c-0.206,0.476-0.411,0.957-0.616,1.441l-1.708,3.725H25.272z"/>
		<path fill="#B969A8" d="M45.768,49.957c-0.858,0-1.638-0.168-2.338-0.504s-1.298-0.816-1.792-1.442s-0.877-1.386-1.147-2.282
			c-0.271-0.896-0.406-1.913-0.406-3.052s0.163-2.156,0.49-3.052c0.326-0.896,0.756-1.656,1.288-2.282
			c0.531-0.625,1.147-1.106,1.848-1.442c0.7-0.336,1.414-0.504,2.142-0.504c0.784,0,1.429,0.131,1.933,0.392
			c0.504,0.262,0.998,0.616,1.483,1.064L49.1,34.725v-4.732h4.116v19.628h-3.36l-0.279-1.373h-0.112
			c-0.485,0.486-1.055,0.893-1.708,1.219S46.44,49.957,45.768,49.957z M46.832,46.597c0.448,0,0.854-0.093,1.218-0.28
			c0.364-0.186,0.714-0.514,1.05-0.98v-5.683c-0.373-0.336-0.756-0.569-1.147-0.7c-0.393-0.13-0.775-0.196-1.148-0.196
			c-0.653,0-1.231,0.312-1.735,0.938c-0.505,0.625-0.757,1.6-0.757,2.926c0,1.381,0.22,2.389,0.658,3.023
			S46.029,46.597,46.832,46.597z"/>
	</g>
	<g>
		<path fill="#B969A8" d="M40.001,66.137c-14.508,0-26.31-11.803-26.31-26.309c0-14.507,11.802-26.309,26.31-26.309
			c1.121,0,2.029,0.909,2.029,2.03s-0.908,2.03-2.029,2.03c-12.27,0-22.25,9.981-22.25,22.25c0,12.268,9.98,22.248,22.25,22.248
			c12.268,0,22.249-9.98,22.249-22.248c0-5.943-2.314-11.53-6.517-15.732c-0.793-0.793-0.793-2.078,0-2.871
			c0.793-0.792,2.078-0.792,2.871,0c4.969,4.969,7.705,11.576,7.705,18.604C66.31,54.334,54.507,66.137,40.001,66.137z"/>
	</g>
</g>
</svg>
