<?xml version="1.0" encoding="utf-8"?>
<!-- Generator: Adobe Illustrator 15.0.0, SVG Export Plug-In . SVG Version: 6.00 Build 0)  -->
<!DOCTYPE svg PUBLIC "-//W3C//DTD SVG 1.1//EN" "http://www.w3.org/Graphics/SVG/1.1/DTD/svg11.dtd">
<svg version="1.1" id="Calque_1" xmlns="http://www.w3.org/2000/svg" xmlns:xlink="http://www.w3.org/1999/xlink" x="0px" y="0px"
	 width="80px" height="80px" viewBox="0 0 80 80" enable-background="new 0 0 80 80" xml:space="preserve">
<g>
	<g>
		<g>
			<path fill="#FFFFFF" d="M-157.979,195.512c16.395,0,29.685-13.291,29.685-29.684c0-16.395-13.29-29.685-29.685-29.685
				s-29.684,13.29-29.684,29.685C-187.664,182.221-174.375,195.512-157.979,195.512"/>
		</g>
	</g>
</g>
<g>
	<path fill="#B969A8" d="M-172.707,175.621l5.067-9.381l-4.76-8.875h4.592l1.597,3.443c0.205,0.43,0.41,0.882,0.615,1.357
		c0.205,0.477,0.438,1.004,0.7,1.582h0.112c0.205-0.578,0.406-1.105,0.602-1.582c0.196-0.476,0.388-0.928,0.574-1.357l1.456-3.443
		h4.396l-4.731,9.071l5.04,9.185h-4.592l-1.82-3.725c-0.224-0.484-0.443-0.966-0.658-1.441c-0.215-0.477-0.452-0.994-0.714-1.555
		h-0.112c-0.205,0.561-0.41,1.078-0.615,1.555c-0.206,0.476-0.411,0.957-0.616,1.441l-1.708,3.725H-172.707z"/>
	<path fill="#B969A8" d="M-152.212,175.957c-0.858,0-1.638-0.168-2.338-0.504s-1.298-0.816-1.792-1.442s-0.877-1.386-1.147-2.282
		c-0.271-0.896-0.406-1.913-0.406-3.052s0.163-2.156,0.49-3.052c0.326-0.896,0.756-1.656,1.288-2.282
		c0.531-0.626,1.147-1.106,1.848-1.442s1.414-0.504,2.142-0.504c0.784,0,1.429,0.131,1.933,0.393s0.998,0.615,1.483,1.063
		l-0.168-2.128v-4.732h4.116v19.629h-3.36l-0.279-1.373h-0.112c-0.485,0.486-1.055,0.893-1.708,1.219
		S-151.539,175.957-152.212,175.957z M-151.147,172.597c0.448,0,0.854-0.093,1.218-0.28c0.364-0.186,0.714-0.514,1.05-0.98v-5.684
		c-0.373-0.336-0.756-0.568-1.147-0.699c-0.393-0.131-0.775-0.196-1.148-0.196c-0.653,0-1.231,0.312-1.735,0.938
		c-0.505,0.625-0.757,1.6-0.757,2.926c0,1.381,0.22,2.389,0.658,3.023S-151.95,172.597-151.147,172.597z"/>
</g>
<g>
	<path fill="#B969A8" d="M-157.979,192.137c-14.507,0-26.309-11.803-26.309-26.309c0-14.507,11.802-26.309,26.309-26.309
		c1.121,0,2.03,0.908,2.03,2.029s-0.909,2.029-2.03,2.029c-12.269,0-22.25,9.981-22.25,22.25c0,12.268,9.981,22.248,22.25,22.248
		s22.25-9.98,22.25-22.248c0-5.943-2.314-11.53-6.517-15.732c-0.792-0.793-0.792-2.078,0-2.871c0.793-0.792,2.078-0.792,2.871,0
		c4.969,4.969,7.705,11.576,7.705,18.604C-131.67,180.334-143.472,192.137-157.979,192.137z"/>
</g>
<g>
	<g>
		<g>
			<g>
				<path fill="#FFFFFF" d="M40,69.512"/>
				<path fill="#FFFFFF" d="M40,69.512"/>
			</g>
		</g>
	</g>
</g>
<g>
	<g>
		<g>
			<path fill="#FFFFFF" d="M40,69.512c16.396,0,29.685-13.291,29.685-29.684c0-16.395-13.289-29.685-29.685-29.685
				c-16.395,0-29.684,13.29-29.684,29.685C10.316,56.221,23.605,69.512,40,69.512"/>
		</g>
	</g>
</g>
<g>
	<path fill="#76519E" d="M33.687,49.621V31.365h6.244c0.952,0,1.834,0.07,2.646,0.21c0.812,0.14,1.521,0.388,2.128,0.742
		c0.606,0.355,1.083,0.822,1.429,1.4c0.345,0.579,0.518,1.307,0.518,2.184c0,0.411-0.056,0.822-0.168,1.232
		s-0.271,0.793-0.476,1.148c-0.206,0.354-0.453,0.672-0.742,0.952c-0.29,0.28-0.621,0.486-0.994,0.616v0.112
		c0.467,0.112,0.896,0.285,1.288,0.518c0.392,0.234,0.737,0.527,1.036,0.883c0.298,0.354,0.532,0.77,0.7,1.245
		s0.252,1.022,0.252,1.638c0,0.934-0.183,1.736-0.546,2.408c-0.364,0.672-0.868,1.229-1.513,1.666
		c-0.644,0.439-1.396,0.766-2.254,0.98s-1.782,0.322-2.771,0.322H33.687z M37.803,38.672h1.932c1.008,0,1.74-0.196,2.198-0.588
		c0.457-0.392,0.686-0.914,0.686-1.568c0-0.709-0.233-1.213-0.699-1.512c-0.467-0.298-1.187-0.448-2.156-0.448h-1.96V38.672z
		 M37.803,46.429h2.324c2.258,0,3.388-0.821,3.388-2.464c0-0.803-0.28-1.377-0.84-1.723c-0.561-0.345-1.41-0.518-2.548-0.518h-2.324
		V46.429z"/>
</g>
<g>
	<path fill="#76519E" d="M40,66.137c-14.506,0-26.309-11.803-26.309-26.309c0-14.507,11.803-26.309,26.309-26.309
		c1.121,0,2.03,0.909,2.03,2.03s-0.909,2.03-2.03,2.03c-12.268,0-22.249,9.981-22.249,22.25c0,12.268,9.981,22.248,22.249,22.248
		c12.27,0,22.25-9.98,22.25-22.248c0-1.121,0.908-2.03,2.029-2.03s2.03,0.909,2.03,2.03C66.31,54.334,54.508,66.137,40,66.137z"/>
</g>
</svg>
