<?xml version="1.0" encoding="utf-8"?>
<!-- Generator: Adobe Illustrator 15.0.0, SVG Export Plug-In . SVG Version: 6.00 Build 0)  -->
<!DOCTYPE svg PUBLIC "-//W3C//DTD SVG 1.1//EN" "http://www.w3.org/Graphics/SVG/1.1/DTD/svg11.dtd">
<svg version="1.1" id="Calque_1" xmlns="http://www.w3.org/2000/svg" xmlns:xlink="http://www.w3.org/1999/xlink" x="0px" y="0px"
	 width="80px" height="80px" viewBox="0 0 80 80" enable-background="new 0 0 80 80" xml:space="preserve">
<g>
	<g>
		<g>
			<path fill="#FFFFFF" d="M-157.979,195.512c16.395,0,29.685-13.291,29.685-29.684c0-16.395-13.29-29.685-29.685-29.685
				s-29.684,13.29-29.684,29.685C-187.664,182.221-174.375,195.512-157.979,195.512"/>
		</g>
	</g>
</g>
<g>
	<path fill="#B969A8" d="M-172.707,175.621l5.067-9.381l-4.76-8.875h4.592l1.597,3.443c0.205,0.43,0.41,0.882,0.615,1.357
		c0.205,0.477,0.438,1.004,0.7,1.582h0.112c0.205-0.578,0.406-1.105,0.602-1.582c0.196-0.476,0.388-0.928,0.574-1.357l1.456-3.443
		h4.396l-4.731,9.071l5.04,9.185h-4.592l-1.82-3.725c-0.224-0.484-0.443-0.966-0.658-1.441c-0.215-0.477-0.452-0.994-0.714-1.555
		h-0.112c-0.205,0.561-0.41,1.078-0.615,1.555c-0.206,0.476-0.411,0.957-0.616,1.441l-1.708,3.725H-172.707z"/>
	<path fill="#B969A8" d="M-152.212,175.957c-0.858,0-1.638-0.168-2.338-0.504s-1.298-0.816-1.792-1.442s-0.877-1.386-1.147-2.282
		c-0.271-0.896-0.406-1.913-0.406-3.052s0.163-2.156,0.49-3.052c0.326-0.896,0.756-1.656,1.288-2.282
		c0.531-0.626,1.147-1.106,1.848-1.442s1.414-0.504,2.142-0.504c0.784,0,1.429,0.131,1.933,0.393s0.998,0.615,1.483,1.063
		l-0.168-2.128v-4.732h4.116v19.629h-3.36l-0.279-1.373h-0.112c-0.485,0.486-1.055,0.893-1.708,1.219
		S-151.539,175.957-152.212,175.957z M-151.147,172.597c0.448,0,0.854-0.093,1.218-0.28c0.364-0.186,0.714-0.514,1.05-0.98v-5.684
		c-0.373-0.336-0.756-0.568-1.147-0.699c-0.393-0.131-0.775-0.196-1.148-0.196c-0.653,0-1.231,0.312-1.735,0.938
		c-0.505,0.625-0.757,1.6-0.757,2.926c0,1.381,0.22,2.389,0.658,3.023S-151.95,172.597-151.147,172.597z"/>
</g>
<g>
	<path fill="#B969A8" d="M-157.979,192.137c-14.507,0-26.309-11.803-26.309-26.309c0-14.507,11.802-26.309,26.309-26.309
		c1.121,0,2.03,0.908,2.03,2.029s-0.909,2.029-2.03,2.029c-12.269,0-22.25,9.981-22.25,22.25c0,12.268,9.981,22.248,22.25,22.248
		s22.25-9.98,22.25-22.248c0-5.943-2.314-11.53-6.517-15.732c-0.792-0.793-0.792-2.078,0-2.871c0.793-0.792,2.078-0.792,2.871,0
		c4.969,4.969,7.705,11.576,7.705,18.604C-131.67,180.334-143.472,192.137-157.979,192.137z"/>
</g>
<g>
	<g>
		<g>
			<path fill="#FFFFFF" d="M40.986,69.377c16.396,0,29.685-13.29,29.685-29.683c0-16.396-13.289-29.685-29.685-29.685
				s-29.684,13.29-29.684,29.685C11.303,56.087,24.591,69.377,40.986,69.377"/>
		</g>
	</g>
</g>
<g>
	<path fill="#4168AE" d="M32.062,47.294c-0.868,0-1.688-0.15-2.457-0.452c-0.771-0.301-1.446-0.744-2.026-1.333
		c-0.582-0.588-1.039-1.319-1.375-2.194c-0.337-0.875-0.505-1.887-0.505-3.035c0-1.134,0.175-2.145,0.525-3.034
		c0.35-0.889,0.819-1.642,1.407-2.258c0.588-0.616,1.273-1.084,2.058-1.407c0.784-0.322,1.61-0.483,2.478-0.483
		c0.883,0,1.674,0.178,2.373,0.535c0.7,0.357,1.281,0.774,1.743,1.25l-1.638,1.974c-0.35-0.322-0.718-0.584-1.103-0.788
		c-0.386-0.203-0.823-0.304-1.312-0.304c-0.462,0-0.899,0.102-1.312,0.304c-0.413,0.203-0.771,0.494-1.071,0.872
		s-0.539,0.84-0.714,1.386c-0.175,0.546-0.263,1.162-0.263,1.848c0,1.415,0.301,2.51,0.903,3.286
		c0.602,0.777,1.407,1.166,2.415,1.166c0.56,0,1.061-0.123,1.502-0.367c0.44-0.245,0.829-0.549,1.165-0.914l1.638,1.932
		C35.344,46.622,33.867,47.294,32.062,47.294z"/>
	<path fill="#4168AE" d="M41.112,47.294c-0.896,0-1.788-0.165-2.677-0.493c-0.89-0.329-1.684-0.822-2.385-1.48l1.765-2.121
		c0.489,0.42,1.032,0.764,1.628,1.029c0.594,0.266,1.179,0.398,1.753,0.398c0.644,0,1.124-0.119,1.438-0.357
		c0.314-0.237,0.473-0.559,0.473-0.965c0-0.211-0.045-0.393-0.137-0.547c-0.091-0.154-0.225-0.29-0.398-0.409
		c-0.176-0.119-0.386-0.231-0.631-0.336c-0.244-0.104-0.514-0.221-0.809-0.347l-1.784-0.756c-0.351-0.14-0.69-0.322-1.019-0.546
		c-0.329-0.224-0.623-0.486-0.883-0.787c-0.259-0.301-0.465-0.651-0.619-1.05s-0.23-0.851-0.23-1.354
		c0-0.56,0.119-1.088,0.357-1.585c0.237-0.497,0.573-0.931,1.008-1.302c0.434-0.371,0.947-0.662,1.543-0.872
		c0.595-0.21,1.25-0.315,1.963-0.315c0.799,0,1.586,0.154,2.363,0.462c0.777,0.308,1.459,0.756,2.047,1.344l-1.574,1.953
		c-0.449-0.35-0.896-0.62-1.344-0.809c-0.449-0.189-0.945-0.283-1.492-0.283c-0.531,0-0.955,0.108-1.27,0.325
		c-0.315,0.217-0.473,0.522-0.473,0.914c0,0.21,0.053,0.389,0.157,0.536s0.252,0.28,0.44,0.399c0.189,0.119,0.41,0.231,0.662,0.336
		s0.525,0.221,0.818,0.347l1.765,0.714c0.84,0.336,1.501,0.798,1.984,1.386c0.483,0.587,0.725,1.365,0.725,2.331
		c0,0.574-0.115,1.116-0.347,1.628c-0.23,0.512-0.566,0.959-1.008,1.344s-0.983,0.693-1.627,0.924
		C42.652,47.179,41.924,47.294,41.112,47.294z"/>
	<path fill="#4168AE" d="M51.359,47.294c-0.896,0-1.788-0.165-2.677-0.493c-0.89-0.329-1.684-0.822-2.384-1.48l1.764-2.121
		c0.49,0.42,1.033,0.764,1.628,1.029s1.179,0.398,1.753,0.398c0.645,0,1.124-0.119,1.439-0.357c0.314-0.237,0.473-0.559,0.473-0.965
		c0-0.211-0.046-0.393-0.137-0.547c-0.092-0.154-0.225-0.29-0.399-0.409s-0.386-0.231-0.63-0.336
		c-0.245-0.104-0.515-0.221-0.809-0.347l-1.785-0.756c-0.35-0.14-0.689-0.322-1.018-0.546c-0.33-0.224-0.623-0.486-0.883-0.787
		s-0.465-0.651-0.619-1.05s-0.231-0.851-0.231-1.354c0-0.56,0.119-1.088,0.357-1.585c0.237-0.497,0.573-0.931,1.008-1.302
		c0.434-0.371,0.948-0.662,1.544-0.872c0.594-0.21,1.249-0.315,1.963-0.315c0.799,0,1.586,0.154,2.363,0.462
		c0.776,0.308,1.459,0.756,2.047,1.344l-1.575,1.953c-0.448-0.35-0.896-0.62-1.344-0.809s-0.944-0.283-1.491-0.283
		c-0.532,0-0.955,0.108-1.271,0.325c-0.315,0.217-0.472,0.522-0.472,0.914c0,0.21,0.052,0.389,0.156,0.536
		c0.105,0.147,0.252,0.28,0.441,0.399c0.189,0.119,0.41,0.231,0.662,0.336s0.524,0.221,0.818,0.347l1.764,0.714
		c0.84,0.336,1.502,0.798,1.984,1.386c0.484,0.587,0.725,1.365,0.725,2.331c0,0.574-0.115,1.116-0.346,1.628
		c-0.231,0.512-0.567,0.959-1.008,1.344c-0.441,0.385-0.984,0.693-1.628,0.924C52.9,47.179,52.172,47.294,51.359,47.294z"/>
</g>
<g>
	<path fill="#4168AE" d="M40.986,66.002c-14.507,0-26.309-11.802-26.309-26.309s11.802-26.309,26.309-26.309
		c1.121,0,2.029,0.909,2.029,2.03s-0.908,2.03-2.029,2.03c-12.269,0-22.25,9.981-22.25,22.25c0,12.268,9.981,22.249,22.25,22.249
		s22.25-9.981,22.25-22.249c0-1.121,0.908-2.03,2.029-2.03s2.029,0.909,2.029,2.03C67.295,54.2,55.493,66.002,40.986,66.002z"/>
</g>
</svg>
