<?xml version="1.0" encoding="utf-8"?>
<!-- Generator: Adobe Illustrator 15.0.0, SVG Export Plug-In . SVG Version: 6.00 Build 0)  -->
<!DOCTYPE svg PUBLIC "-//W3C//DTD SVG 1.1//EN" "http://www.w3.org/Graphics/SVG/1.1/DTD/svg11.dtd">
<svg version="1.1" id="Calque_1" xmlns="http://www.w3.org/2000/svg" xmlns:xlink="http://www.w3.org/1999/xlink" x="0px" y="0px"
	 width="80px" height="80px" viewBox="0 0 80 80" enable-background="new 0 0 80 80" xml:space="preserve">
<g>
	<g>
		<g>
			<path fill="#FFFFFF" d="M-157.979,195.512c16.395,0,29.685-13.291,29.685-29.684c0-16.395-13.29-29.685-29.685-29.685
				s-29.684,13.29-29.684,29.685C-187.664,182.221-174.375,195.512-157.979,195.512"/>
		</g>
	</g>
</g>
<g>
	<path fill="#B969A8" d="M-172.707,175.621l5.067-9.381l-4.76-8.875h4.592l1.597,3.443c0.205,0.43,0.41,0.882,0.615,1.357
		c0.205,0.477,0.438,1.004,0.7,1.582h0.112c0.205-0.578,0.406-1.105,0.602-1.582c0.196-0.476,0.388-0.928,0.574-1.357l1.456-3.443
		h4.396l-4.731,9.071l5.04,9.185h-4.592l-1.82-3.725c-0.224-0.484-0.443-0.966-0.658-1.441c-0.215-0.477-0.452-0.994-0.714-1.555
		h-0.112c-0.205,0.561-0.41,1.078-0.615,1.555c-0.206,0.476-0.411,0.957-0.616,1.441l-1.708,3.725H-172.707z"/>
	<path fill="#B969A8" d="M-152.212,175.957c-0.858,0-1.638-0.168-2.338-0.504s-1.298-0.816-1.792-1.442s-0.877-1.386-1.147-2.282
		c-0.271-0.896-0.406-1.913-0.406-3.052s0.163-2.156,0.49-3.052c0.326-0.896,0.756-1.656,1.288-2.282
		c0.531-0.626,1.147-1.106,1.848-1.442s1.414-0.504,2.142-0.504c0.784,0,1.429,0.131,1.933,0.393s0.998,0.615,1.483,1.063
		l-0.168-2.128v-4.732h4.116v19.629h-3.36l-0.279-1.373h-0.112c-0.485,0.486-1.055,0.893-1.708,1.219
		S-151.539,175.957-152.212,175.957z M-151.147,172.597c0.448,0,0.854-0.093,1.218-0.28c0.364-0.186,0.714-0.514,1.05-0.98v-5.684
		c-0.373-0.336-0.756-0.568-1.147-0.699c-0.393-0.131-0.775-0.196-1.148-0.196c-0.653,0-1.231,0.312-1.735,0.938
		c-0.505,0.625-0.757,1.6-0.757,2.926c0,1.381,0.22,2.389,0.658,3.023S-151.95,172.597-151.147,172.597z"/>
</g>
<g>
	<path fill="#B969A8" d="M-157.979,192.137c-14.507,0-26.309-11.803-26.309-26.309c0-14.507,11.802-26.309,26.309-26.309
		c1.121,0,2.03,0.908,2.03,2.029s-0.909,2.029-2.03,2.029c-12.269,0-22.25,9.981-22.25,22.25c0,12.268,9.981,22.248,22.25,22.248
		s22.25-9.98,22.25-22.248c0-5.943-2.314-11.53-6.517-15.732c-0.792-0.793-0.792-2.078,0-2.871c0.793-0.792,2.078-0.792,2.871,0
		c4.969,4.969,7.705,11.576,7.705,18.604C-131.67,180.334-143.472,192.137-157.979,192.137z"/>
</g>
<g>
	<g>
		<g>
			<path fill="#FFFFFF" d="M40,69.836c16.395,0,29.685-13.291,29.685-29.684c0-16.396-13.29-29.685-29.685-29.685
				s-29.684,13.29-29.684,29.685C10.316,56.545,23.605,69.836,40,69.836"/>
		</g>
	</g>
</g>
<g>
	<path fill="#ED443E" d="M22.353,45.718V35.286h2.353v4.016h3.6v-4.016h2.367v10.432h-2.367v-4.353h-3.6v4.353H22.353z"/>
	<path fill="#ED443E" d="M34.369,45.718V37.27h-2.865v-1.984h8.097v1.984h-2.864v8.448H34.369z"/>
	<path fill="#ED443E" d="M40.432,45.718V35.286h2.576l1.68,4.64c0.107,0.31,0.209,0.627,0.305,0.952s0.197,0.647,0.305,0.968h0.063
		c0.106-0.32,0.205-0.643,0.296-0.968c0.09-0.325,0.189-0.643,0.296-0.952l1.647-4.64h2.561v10.432h-2.145v-3.824
		c0-0.256,0.012-0.538,0.033-0.848c0.021-0.31,0.047-0.622,0.08-0.936c0.031-0.314,0.063-0.624,0.096-0.928
		c0.031-0.304,0.063-0.584,0.096-0.84h-0.064l-0.848,2.48l-1.488,3.984h-1.296l-1.487-3.984l-0.832-2.48H42.24
		c0.031,0.256,0.064,0.536,0.096,0.84c0.032,0.304,0.064,0.614,0.096,0.928c0.033,0.314,0.059,0.626,0.08,0.936
		s0.033,0.592,0.033,0.848v3.824H40.432z"/>
	<path fill="#ED443E" d="M51.824,45.718V35.286h2.352v8.449h4.129v1.983H51.824z"/>
</g>
<g>
	<path fill="#ED443E" d="M40,66.46c-14.507,0-26.309-11.802-26.309-26.309S25.493,13.842,40,13.842c1.121,0,2.029,0.909,2.029,2.03
		s-0.908,2.03-2.029,2.03c-12.269,0-22.25,9.981-22.25,22.25S27.731,62.4,40,62.4s22.25-9.98,22.25-22.249
		c0-1.121,0.908-2.03,2.029-2.03s2.029,0.909,2.029,2.03C66.309,54.658,54.507,66.46,40,66.46z"/>
</g>
</svg>
