<?xml version="1.0" encoding="utf-8"?>
<!-- Generator: Adobe Illustrator 15.0.0, SVG Export Plug-In . SVG Version: 6.00 Build 0)  -->
<!DOCTYPE svg PUBLIC "-//W3C//DTD SVG 1.1//EN" "http://www.w3.org/Graphics/SVG/1.1/DTD/svg11.dtd">
<svg version="1.1" id="Calque_1" xmlns="http://www.w3.org/2000/svg" xmlns:xlink="http://www.w3.org/1999/xlink" x="0px" y="0px"
	 width="80px" height="80px" viewBox="0 0 80 80" enable-background="new 0 0 80 80" xml:space="preserve">
<g>
	<g>
		<g>
			<path fill="#FFFFFF" d="M39.895,69.512c16.396,0,29.684-13.291,29.684-29.684c0-16.395-13.288-29.684-29.684-29.684
				c-16.395,0-29.684,13.289-29.684,29.684C10.21,56.221,23.5,69.512,39.895,69.512"/>
		</g>
	</g>
</g>
<g>
	<path fill="#F7A732" d="M28.541,49.607l5.712-18.255h4.956l5.712,18.255h-4.368l-1.12-4.34h-5.572l-1.12,4.34H28.541z
		 M35.149,40.368l-0.448,1.68h3.892l-0.42-1.68c-0.262-0.914-0.514-1.885-0.756-2.912c-0.243-1.026-0.486-2.016-0.728-2.968h-0.112
		c-0.224,0.971-0.453,1.965-0.686,2.982C35.657,38.487,35.41,39.454,35.149,40.368z"/>
	<path fill="#F7A732" d="M47.217,33.676c-0.69,0-1.26-0.2-1.708-0.602c-0.448-0.401-0.672-0.919-0.672-1.554
		c0-0.634,0.224-1.148,0.672-1.54s1.018-0.588,1.708-0.588c0.709,0,1.283,0.196,1.723,0.588c0.438,0.392,0.658,0.906,0.658,1.54
		c0,0.635-0.221,1.153-0.658,1.554C48.5,33.476,47.926,33.676,47.217,33.676z M45.173,49.607V35.72h4.116v13.888H45.173z"/>
</g>
<g>
	<path fill="#F7A732" d="M39.895,66.137c-14.507,0-26.309-11.803-26.309-26.309c0-14.507,11.802-26.309,26.309-26.309
		s26.309,11.802,26.309,26.309C66.203,54.334,54.401,66.137,39.895,66.137z M39.895,17.578c-12.269,0-22.25,9.981-22.25,22.25
		c0,12.268,9.981,22.249,22.25,22.249s22.25-9.98,22.25-22.249C62.145,27.559,52.163,17.578,39.895,17.578z"/>
</g>
</svg>
