<?xml version="1.0" encoding="utf-8"?>
<!-- Generator: Adobe Illustrator 15.0.0, SVG Export Plug-In . SVG Version: 6.00 Build 0)  -->
<!DOCTYPE svg PUBLIC "-//W3C//DTD SVG 1.1//EN" "http://www.w3.org/Graphics/SVG/1.1/DTD/svg11.dtd">
<svg version="1.1" id="Calque_1" xmlns="http://www.w3.org/2000/svg" xmlns:xlink="http://www.w3.org/1999/xlink" x="0px" y="0px"
	 width="80px" height="80px" viewBox="0 0 80 80" enable-background="new 0 0 80 80" xml:space="preserve">
<g>
	<g>
		<g>
			<path fill="#FFFFFF" d="M39.544,69.054c16.395,0,29.684-13.291,29.684-29.685c0-16.396-13.289-29.685-29.684-29.685
				S9.86,22.974,9.86,39.369C9.86,55.763,23.149,69.054,39.544,69.054"/>
		</g>
	</g>
</g>
<g>
	<g>
		<path fill="#EE618B" d="M30.758,48.497V30.241h4.116v18.256H30.758z"/>
	</g>
	<g>
		<path fill="#EE618B" d="M37.555,48.497v-16.3h4.6c1.25,0,2.375,0.158,3.375,0.475c1,0.317,1.858,0.805,2.575,1.463
			s1.266,1.496,1.65,2.512c0.383,1.017,0.574,2.225,0.574,3.625s-0.191,2.617-0.574,3.65c-0.385,1.033-0.926,1.888-1.625,2.562
			c-0.701,0.676-1.538,1.18-2.514,1.513c-0.975,0.333-2.062,0.5-3.262,0.5H37.555z M41.23,45.521h0.699
			c0.701,0,1.334-0.091,1.9-0.274c0.566-0.183,1.051-0.479,1.45-0.888s0.712-0.945,0.938-1.612s0.337-1.491,0.337-2.475
			c0-0.966-0.111-1.779-0.337-2.438c-0.226-0.658-0.538-1.183-0.938-1.575s-0.884-0.671-1.45-0.838
			c-0.566-0.166-1.199-0.25-1.9-0.25H41.23V45.521z"/>
	</g>
</g>
<g>
	<path fill="#EE618B" d="M39.544,65.678c-14.507,0-26.309-11.802-26.309-26.309s11.802-26.309,26.309-26.309
		c14.506,0,26.309,11.802,26.309,26.309S54.051,65.678,39.544,65.678z M39.544,17.12c-12.269,0-22.25,9.98-22.25,22.249
		s9.981,22.249,22.25,22.249c12.268,0,22.25-9.98,22.25-22.249S51.812,17.12,39.544,17.12z"/>
</g>
</svg>
