<?xml version="1.0" encoding="utf-8"?>
<!-- Generator: Adobe Illustrator 15.0.0, SVG Export Plug-In . SVG Version: 6.00 Build 0)  -->
<!DOCTYPE svg PUBLIC "-//W3C//DTD SVG 1.1//EN" "http://www.w3.org/Graphics/SVG/1.1/DTD/svg11.dtd">
<svg version="1.1" id="Calque_1" xmlns="http://www.w3.org/2000/svg" xmlns:xlink="http://www.w3.org/1999/xlink" x="0px" y="0px"
	 width="80px" height="80px" viewBox="0 0 80 80" enable-background="new 0 0 80 80" xml:space="preserve">
<g>
	<g>
		<g>
			<path fill="#FFFFFF" d="M-157.979,195.512c16.395,0,29.685-13.291,29.685-29.684c0-16.395-13.29-29.685-29.685-29.685
				s-29.684,13.29-29.684,29.685C-187.664,182.221-174.375,195.512-157.979,195.512"/>
		</g>
	</g>
</g>
<g>
	<path fill="#B969A8" d="M-172.707,175.621l5.067-9.381l-4.76-8.875h4.592l1.597,3.443c0.205,0.43,0.41,0.882,0.615,1.357
		c0.205,0.477,0.438,1.004,0.7,1.582h0.112c0.205-0.578,0.406-1.105,0.602-1.582c0.196-0.476,0.388-0.928,0.574-1.357l1.456-3.443
		h4.396l-4.731,9.071l5.04,9.185h-4.592l-1.82-3.725c-0.224-0.484-0.443-0.966-0.658-1.441c-0.215-0.477-0.452-0.994-0.714-1.555
		h-0.112c-0.205,0.561-0.41,1.078-0.615,1.555c-0.206,0.476-0.411,0.957-0.616,1.441l-1.708,3.725H-172.707z"/>
	<path fill="#B969A8" d="M-152.212,175.957c-0.858,0-1.638-0.168-2.338-0.504s-1.298-0.816-1.792-1.442s-0.877-1.386-1.147-2.282
		c-0.271-0.896-0.406-1.913-0.406-3.052s0.163-2.156,0.49-3.052c0.326-0.896,0.756-1.656,1.288-2.282
		c0.531-0.626,1.147-1.106,1.848-1.442s1.414-0.504,2.142-0.504c0.784,0,1.429,0.131,1.933,0.393s0.998,0.615,1.483,1.063
		l-0.168-2.128v-4.732h4.116v19.629h-3.36l-0.279-1.373h-0.112c-0.485,0.486-1.055,0.893-1.708,1.219
		S-151.539,175.957-152.212,175.957z M-151.147,172.597c0.448,0,0.854-0.093,1.218-0.28c0.364-0.186,0.714-0.514,1.05-0.98v-5.684
		c-0.373-0.336-0.756-0.568-1.147-0.699c-0.393-0.131-0.775-0.196-1.148-0.196c-0.653,0-1.231,0.312-1.735,0.938
		c-0.505,0.625-0.757,1.6-0.757,2.926c0,1.381,0.22,2.389,0.658,3.023S-151.95,172.597-151.147,172.597z"/>
</g>
<g>
	<path fill="#B969A8" d="M-157.979,192.137c-14.507,0-26.309-11.803-26.309-26.309c0-14.507,11.802-26.309,26.309-26.309
		c1.121,0,2.03,0.908,2.03,2.029s-0.909,2.029-2.03,2.029c-12.269,0-22.25,9.981-22.25,22.25c0,12.268,9.981,22.248,22.25,22.248
		s22.25-9.98,22.25-22.248c0-5.943-2.314-11.53-6.517-15.732c-0.792-0.793-0.792-2.078,0-2.871c0.793-0.792,2.078-0.792,2.871,0
		c4.969,4.969,7.705,11.576,7.705,18.604C-131.67,180.334-143.472,192.137-157.979,192.137z"/>
</g>
<g>
	<g>
		<g>
			<path fill="#FFFFFF" d="M40.641,69.164c16.395,0,29.685-13.29,29.685-29.683c0-16.396-13.29-29.685-29.685-29.685
				s-29.684,13.29-29.684,29.685C10.957,55.874,24.246,69.164,40.641,69.164"/>
		</g>
	</g>
</g>
<g>
	<path fill="#6ABB4D" d="M34.729,46.816c-1.05,0-1.929-0.203-2.636-0.608s-1.298-1.029-1.774-1.869l2.101-1.554
		c0.252,0.462,0.546,0.805,0.882,1.029c0.336,0.224,0.679,0.336,1.029,0.336c0.56,0,0.983-0.172,1.271-0.516
		c0.286-0.342,0.43-0.969,0.43-1.879v-8.883h3.087v9.135c0,0.658-0.087,1.281-0.262,1.869c-0.176,0.588-0.441,1.1-0.798,1.533
		c-0.357,0.434-0.812,0.777-1.365,1.029C36.14,46.691,35.485,46.816,34.729,46.816z"/>
	<path fill="#6ABB4D" d="M45.419,46.816c-0.896,0-1.789-0.164-2.678-0.493s-1.684-0.822-2.384-1.48l1.765-2.12
		c0.489,0.42,1.032,0.763,1.627,1.028c0.595,0.267,1.18,0.399,1.754,0.399c0.644,0,1.123-0.119,1.438-0.357
		c0.314-0.238,0.473-0.56,0.473-0.966c0-0.21-0.046-0.392-0.137-0.546s-0.225-0.291-0.399-0.41s-0.385-0.23-0.63-0.336
		c-0.245-0.104-0.515-0.221-0.809-0.346l-1.784-0.756c-0.351-0.14-0.69-0.322-1.019-0.546c-0.329-0.224-0.623-0.486-0.883-0.787
		c-0.259-0.301-0.465-0.651-0.619-1.05s-0.231-0.851-0.231-1.354c0-0.56,0.119-1.088,0.357-1.585
		c0.238-0.497,0.574-0.931,1.008-1.302s0.948-0.662,1.544-0.872c0.595-0.21,1.249-0.315,1.963-0.315
		c0.799,0,1.586,0.154,2.363,0.462c0.776,0.308,1.459,0.756,2.047,1.344L48.61,36.38c-0.448-0.35-0.896-0.62-1.344-0.809
		s-0.944-0.283-1.491-0.283c-0.532,0-0.955,0.108-1.271,0.325c-0.314,0.217-0.472,0.522-0.472,0.914c0,0.21,0.052,0.389,0.157,0.536
		c0.104,0.147,0.252,0.28,0.44,0.399c0.189,0.119,0.41,0.231,0.662,0.336s0.524,0.221,0.818,0.347l1.765,0.714
		c0.84,0.336,1.501,0.798,1.984,1.386c0.483,0.588,0.725,1.365,0.725,2.33c0,0.574-0.115,1.117-0.347,1.629
		c-0.231,0.511-0.567,0.959-1.008,1.344c-0.441,0.385-0.983,0.692-1.628,0.924C46.959,46.701,46.23,46.816,45.419,46.816z"/>
</g>
<g>
	<path fill="#6ABB4D" d="M40.641,65.789c-14.507,0-26.309-11.802-26.309-26.309s11.802-26.309,26.309-26.309
		c1.121,0,2.029,0.909,2.029,2.03s-0.908,2.03-2.029,2.03c-12.269,0-22.25,9.981-22.25,22.25c0,12.268,9.981,22.249,22.25,22.249
		s22.25-9.981,22.25-22.249c0-1.121,0.908-2.03,2.029-2.03s2.029,0.909,2.029,2.03C66.949,53.987,55.147,65.789,40.641,65.789z"/>
</g>
</svg>
