<?xml version="1.0" encoding="utf-8"?>
<!-- Generator: Adobe Illustrator 15.0.0, SVG Export Plug-In . SVG Version: 6.00 Build 0)  -->
<!DOCTYPE svg PUBLIC "-//W3C//DTD SVG 1.1//EN" "http://www.w3.org/Graphics/SVG/1.1/DTD/svg11.dtd">
<svg version="1.1" id="Calque_1" xmlns="http://www.w3.org/2000/svg" xmlns:xlink="http://www.w3.org/1999/xlink" x="0px" y="0px"
	 width="1920px" height="1080px" viewBox="0 0 1920 1080" enable-background="new 0 0 1920 1080" xml:space="preserve">
<g>
	<path fill="#231F20" d="M1136.58,630.096c-1.219-2.609-2.718-3.865-4.812-3.865h-9.793c0,0,22.107,55.117,22.129,55.117
		c1.213,2.604,2.715,3.865,4.807,3.865h9.796C1158.706,685.213,1136.594,630.1,1136.58,630.096z"/>
</g>
<path fill="#E92E8D" d="M1174.827,626.439c-0.624-0.164-1.247-0.205-1.854-0.191c-0.079,0-0.146-0.018-0.229-0.018l-14.148,0.018
	l9.14,10.785c0.047,0.062,0.104,0.105,0.156,0.162c0.391,0.479,0.819,0.932,1.348,1.295c2.059,1.428,4.631,1.475,6.71,0.395
	c0.155-0.082,0.328-0.143,0.476-0.242c0.719-0.455,1.354-1.053,1.871-1.785c0.259-0.377,0.461-0.766,0.633-1.17h0.004
	c0.006-0.01,0.006-0.016,0.006-0.021c0.004-0.004,0.009-0.004,0.009-0.014v-0.002c0.195-0.387,0.362-0.801,0.485-1.238
	c0.229-0.865,0.267-1.742,0.154-2.58c-0.023-0.186-0.083-0.348-0.125-0.523C1178.948,629.023,1177.24,627.088,1174.827,626.439z"/>
<path fill="#47338E" d="M1239.881,633.992c0.254,0.438,9.828,11.861,9.828,11.861s0.066-14.895-0.018-15.387
	c-0.342-1.938-1.736-3.412-3.484-3.971c-0.131-0.047-0.26-0.111-0.402-0.137c-0.652-0.148-1.33-0.172-2.027-0.057
	c-0.35,0.066-0.688,0.166-1.01,0.295v-0.006c-0.002,0.006-0.006,0.006-0.012,0.006c0,0-0.004,0.004-0.012,0.004v0.006
	c-0.326,0.104-0.646,0.24-0.949,0.414c-0.621,0.352-1.127,0.811-1.533,1.334c-0.09,0.117-0.148,0.24-0.225,0.361
	C1239.049,630.266,1238.916,632.287,1239.881,633.992z"/>
<path fill="#231F20" d="M1211.764,629.572c-1.672-2.309-2.852-3.455-5.721-3.332l-10.833-0.01l0.003,53.689
	c0,2.951,2.008,5.346,4.436,5.346l8.004,0.004v-39.977c10.568,16.187,24.037,36.814,24.041,36.816
	c1.676,2.305,2.855,3.312,5.721,3.189h10.689C1248.104,685.299,1211.771,629.576,1211.764,629.572z"/>
</svg>
