<?xml version="1.0" encoding="utf-8"?>
<!-- Generator: Adobe Illustrator 15.0.0, SVG Export Plug-In . SVG Version: 6.00 Build 0)  -->
<!DOCTYPE svg PUBLIC "-//W3C//DTD SVG 1.1//EN" "http://www.w3.org/Graphics/SVG/1.1/DTD/svg11.dtd">
<svg version="1.1" id="Calque_1" xmlns="http://www.w3.org/2000/svg" xmlns:xlink="http://www.w3.org/1999/xlink" x="0px" y="0px"
	 width="90px" height="90px" viewBox="0 0 90 90" enable-background="new 0 0 90 90" xml:space="preserve">
<g>
	<path fill="#231F20" d="M11.431,27.029c-0.828-1.773-1.848-2.627-3.272-2.627H1.5c0,0,15.031,37.473,15.046,37.473
		c0.825,1.771,1.847,2.629,3.269,2.629h6.66C26.475,64.504,11.439,27.032,11.431,27.029z"/>
</g>
<path fill="#E8308D" d="M37.435,24.543c-0.425-0.112-0.848-0.14-1.26-0.13c-0.053,0-0.099-0.012-0.155-0.012l-9.621,0.012
	l6.215,7.333c0.032,0.042,0.07,0.071,0.106,0.11c0.266,0.325,0.557,0.634,0.916,0.881c1.4,0.97,3.148,1.002,4.562,0.269
	c0.106-0.056,0.224-0.098,0.324-0.165c0.488-0.309,0.921-0.716,1.272-1.212c0.176-0.257,0.312-0.521,0.43-0.796h0.003
	c0.005-0.008,0.005-0.011,0.005-0.015c0.002-0.003,0.005-0.003,0.005-0.009v-0.001c0.133-0.264,0.247-0.545,0.329-0.842
	c0.156-0.588,0.183-1.185,0.104-1.754c-0.015-0.126-0.056-0.236-0.084-0.355C40.237,26.3,39.076,24.984,37.435,24.543z"/>
<path fill="#49358E" d="M81.664,29.678c0.173,0.297,6.683,8.064,6.683,8.064s0.045-10.128-0.011-10.462
	c-0.233-1.317-1.182-2.32-2.369-2.699c-0.09-0.032-0.178-0.076-0.274-0.093c-0.443-0.101-0.905-0.118-1.378-0.039
	c-0.239,0.044-0.469,0.112-0.688,0.2v-0.004c-0.001,0.004-0.004,0.004-0.007,0.004c0,0-0.002,0.003-0.008,0.003v0.004
	c-0.221,0.071-0.44,0.163-0.646,0.282c-0.421,0.239-0.767,0.551-1.042,0.907c-0.062,0.079-0.101,0.162-0.153,0.245
	C81.099,27.145,81.009,28.519,81.664,29.678z"/>
<path fill="#231F20" d="M62.547,26.673c-1.136-1.57-1.938-2.349-3.89-2.266l-7.364-0.006l0.002,36.502
	c0,2.007,1.365,3.635,3.017,3.635l5.442,0.003V37.36c7.184,11.007,16.342,25.029,16.345,25.031c1.14,1.566,1.94,2.252,3.89,2.169
	h7.267C87.254,64.562,62.553,26.676,62.547,26.673z"/>
</svg>
