<?xml version="1.0" encoding="utf-8"?>
<!-- Generator: Adobe Illustrator 15.0.0, SVG Export Plug-In . SVG Version: 6.00 Build 0)  -->
<!DOCTYPE svg PUBLIC "-//W3C//DTD SVG 1.1//EN" "http://www.w3.org/Graphics/SVG/1.1/DTD/svg11.dtd">
<svg version="1.1" id="Calque_1" xmlns="http://www.w3.org/2000/svg" xmlns:xlink="http://www.w3.org/1999/xlink" x="0px" y="0px"
	 width="90px" height="90px" viewBox="0 0 90 90" enable-background="new 0 0 90 90" xml:space="preserve">
<g>
	<path d="M11.351,27.265c-0.827-1.77-1.844-2.622-3.265-2.622H1.442c0,0,14.998,37.391,15.012,37.391
		c0.823,1.765,1.841,2.621,3.26,2.621h6.646C26.36,64.655,11.359,27.268,11.351,27.265z"/>
</g>
<path fill="#E92F8E" d="M37.297,24.785c-0.423-0.111-0.847-0.139-1.258-0.129c-0.054,0-0.099-0.012-0.155-0.012l-9.598,0.012
	l6.2,7.316c0.032,0.042,0.07,0.071,0.106,0.11c0.265,0.325,0.556,0.632,0.914,0.878c1.397,0.969,3.143,1,4.553,0.268
	c0.105-0.056,0.222-0.097,0.322-0.165c0.488-0.309,0.918-0.714,1.269-1.211c0.176-0.256,0.313-0.52,0.429-0.794h0.003
	c0.004-0.006,0.004-0.011,0.004-0.014c0.003-0.003,0.006-0.003,0.006-0.01v-0.001c0.132-0.262,0.246-0.543,0.329-0.84
	c0.155-0.586,0.181-1.182,0.105-1.75c-0.016-0.126-0.057-0.236-0.085-0.355C40.092,26.538,38.934,25.225,37.297,24.785z"/>
<g>
	<path fill="#47338F" d="M81.428,29.909c0.172,0.297,6.667,8.047,6.667,8.047s0.045-10.105-0.012-10.439
		c-0.232-1.314-1.178-2.314-2.363-2.693c-0.089-0.032-0.177-0.076-0.273-0.093c-0.442-0.101-0.901-0.116-1.375-0.038
		c-0.237,0.045-0.466,0.112-0.685,0.2v-0.004c-0.003,0.004-0.005,0.004-0.009,0.004c0,0-0.002,0.003-0.008,0.003v0.004
		c-0.222,0.07-0.438,0.162-0.644,0.28c-0.421,0.238-0.765,0.55-1.04,0.905c-0.062,0.08-0.102,0.163-0.153,0.245
		C80.863,27.381,80.772,28.752,81.428,29.909z"/>
	<path fill="#F38230" d="M57.776,59.486c-0.17-0.294-6.632-7.999-6.632-7.999s-0.052,10.043,0.008,10.375
		c0.229,1.306,1.168,2.298,2.353,2.677c0.088,0.033,0.177,0.075,0.271,0.095c0.437,0.098,0.897,0.116,1.373,0.038
		c0.234-0.046,0.461-0.111,0.676-0.197v0.003c0.006-0.003,0.008-0.003,0.008-0.006c0.003,0,0.007,0,0.008,0l0.002-0.002
		c0.22-0.072,0.439-0.165,0.646-0.282c0.414-0.235,0.756-0.545,1.032-0.9c0.061-0.074,0.102-0.159,0.152-0.24
		C58.337,62.003,58.433,60.64,57.776,59.486z"/>
	<path d="M62.354,26.91c-1.135-1.566-1.935-2.344-3.882-2.26h-7.346c0,0,24.743,37.898,24.747,37.901
		c1.138,1.563,1.938,2.247,3.881,2.163h7.252C87.006,64.714,62.359,26.913,62.354,26.91z"/>
</g>
</svg>
