<?xml version="1.0" encoding="utf-8"?>
<!-- Generator: Adobe Illustrator 15.0.0, SVG Export Plug-In . SVG Version: 6.00 Build 0)  -->
<!DOCTYPE svg PUBLIC "-//W3C//DTD SVG 1.1//EN" "http://www.w3.org/Graphics/SVG/1.1/DTD/svg11.dtd">
<svg version="1.1" id="Calque_1" xmlns="http://www.w3.org/2000/svg" xmlns:xlink="http://www.w3.org/1999/xlink" x="0px" y="0px"
	 width="1920px" height="1080px" viewBox="0 0 1920 1080" enable-background="new 0 0 1920 1080" xml:space="preserve">
<g id="u3mvoi_4_">
	<g>
		<g>
			<path fill-rule="evenodd" clip-rule="evenodd" fill="#FFEDD6" d="M1006.225,314.768c1.505-0.384,5.513,0.313,6.799,1.185
				C1010.757,315.557,1008.491,315.163,1006.225,314.768z"/>
		</g>
		<g>
			<path fill-rule="evenodd" clip-rule="evenodd" fill="#FBBB69" d="M918.307,399.478c-0.22,1.259-0.438,2.518-0.657,3.777
				C917.095,402.738,917.61,399.775,918.307,399.478z"/>
		</g>
		<g>
			<path fill-rule="evenodd" clip-rule="evenodd" fill="#FFEDD6" d="M833.263,487.801c-0.373,2.141-0.746,4.281-1.119,6.422
				C831.737,492.842,832.413,488.963,833.263,487.801z"/>
		</g>
		<g>
			<path fill-rule="evenodd" clip-rule="evenodd" fill="#FBBB69" d="M999.704,613.691c4.267,0.095,11.061,1.278,15.109,2.631
				C1009.776,615.445,1004.739,614.568,999.704,613.691z"/>
		</g>
		<g>
			<path fill-rule="evenodd" clip-rule="evenodd" fill="#FED79E" d="M924.035,339.763c1.939-1.641,4.009-3.097,6.209-4.367
				C928.305,337.036,926.235,338.492,924.035,339.763z"/>
		</g>
		<g>
			<path fill-rule="evenodd" clip-rule="evenodd" fill="#FFEDD6" d="M850.913,583.11c1.537,1.791,2.889,3.714,4.056,5.766
				C853.432,587.084,852.079,585.163,850.913,583.11z"/>
		</g>
		<g>
			<path fill-rule="evenodd" clip-rule="evenodd" fill="#FBBB69" d="M854.969,588.876c-1.167-2.052-2.519-3.975-4.056-5.766
				c-0.019-0.318-0.313-0.442-0.246-0.821c1.849,2.235,3.512,4.601,4.991,7.097C855.364,589.26,855.348,588.94,854.969,588.876z"/>
		</g>
		<g>
			<path fill-rule="evenodd" clip-rule="evenodd" fill="#FED79E" d="M1098.838,381.879c1.642,1.938,3.097,4.009,4.368,6.209
				C1101.564,386.148,1100.108,384.079,1098.838,381.879z"/>
		</g>
		<g>
			<path fill-rule="evenodd" clip-rule="evenodd" fill="#FED79E" d="M1038.844,379.993c1.132-0.45,4.753,0.181,5.666,0.986
				C1042.62,380.65,1040.732,380.322,1038.844,379.993z"/>
		</g>
		<g>
			<path fill-rule="evenodd" clip-rule="evenodd" fill="#FBBB69" d="M1009.44,401.337c-0.307,1.763-0.613,3.525-0.921,5.289
				C1008.049,405.618,1008.657,402.126,1009.44,401.337z"/>
		</g>
		<g>
			<path fill-rule="evenodd" clip-rule="evenodd" fill="#FED79E" d="M976.296,408.408c0.471,1.007-0.137,4.499-0.92,5.288
				C975.683,411.934,975.989,410.171,976.296,408.408z"/>
		</g>
		<g>
			<path fill-rule="evenodd" clip-rule="evenodd" fill="#FED79E" d="M834.824,481.067c-0.53,1.603-0.251,4.355-1.299,5.223
				C834.056,484.688,833.776,481.934,834.824,481.067z"/>
		</g>
		<g>
			<path fill-rule="evenodd" clip-rule="evenodd" fill="#FBBB69" d="M831.881,495.733c0.77,0.674-0.317,2.653-0.28,3.843
				C830.831,498.902,831.918,496.922,831.881,495.733z"/>
		</g>
		<g>
			<path fill-rule="evenodd" clip-rule="evenodd" fill="#FED79E" d="M990.572,612.491c1.17-0.694,3.667,0.5,5.354,0.542
				C994.757,613.727,992.261,612.533,990.572,612.491z"/>
		</g>
		<g>
			<path fill-rule="evenodd" clip-rule="evenodd" fill="#FED79E" d="M1018.59,616.98c1.107,0.437,3.338,0.083,3.712,1.036
				C1021.194,617.579,1018.964,617.933,1018.59,616.98z"/>
		</g>
		<g>
			<path fill-rule="evenodd" clip-rule="evenodd" fill="#FBBB69" d="M899.814,619.647c1.229,0.461,3.593,0.124,4.089,1.102
				C902.673,620.288,900.311,620.624,899.814,619.647z"/>
		</g>
		<g>
			<path fill-rule="evenodd" clip-rule="evenodd" fill="#FBBB69" d="M952.705,662.328c0.513,0.76-0.05,3.99-0.789,4.533
				C952.179,665.35,952.442,663.84,952.705,662.328z"/>
		</g>
		<g>
			<path fill-rule="evenodd" clip-rule="evenodd" fill="#FED79E" d="M1058.66,706.465c1.259,0.221,2.519,0.439,3.777,0.658
				C1061.921,707.678,1058.959,707.16,1058.66,706.465z"/>
		</g>
		<g>
			<path fill-rule="evenodd" clip-rule="evenodd" fill="#FED79E" d="M894.693,682.582c-0.242,1.385-0.483,2.77-0.724,4.154
				C893.436,686.098,893.975,683.002,894.693,682.582z"/>
		</g>
		<g>
			<path fill-rule="evenodd" clip-rule="evenodd" fill="#FED79E" d="M938.796,433.791c2.015,0.351,4.029,0.701,6.043,1.053
				C943.583,435.271,939.833,434.618,938.796,433.791z"/>
		</g>
	</g>
</g>
<path fill="#FFB442" d="M1247.05,397.757c0.101-1.2-0.006-2.33-0.32-3.357c-0.896-2.919-3.616-6.223-11.502-5.376
	c-2.01,0.215-4.002,0.848-5.758,1.405c-0.926,0.295-2.193,0.696-3.064,0.867c-0.008-1.958,1.69-5.497,2.294-6.752l0.205-0.424
	c1.32-2.781,2.677-6.837,1.6-10.354c-0.639-2.084-2.078-3.724-4.047-4.622c-5.017-2.278-9.923,2.443-12.018,4.459l-0.057,0.055
	c-2.22,2.136-4.967,5.688-6.61,7.81l-0.23,0.302c-0.876,1.13-1.694,2.262-2.416,3.259c-0.232,0.317-0.48,0.66-0.733,1.007
	c-3.046-8.641-7.638-9.931-11.032-9.434c-5.156,0.755-7.244,5.896-8.243,8.365c-0.067,0.161-0.128,0.311-0.184,0.446
	c-1.325,3.162-2.02,5.677-2.676,8.187c-1.662,6.384-2.642,10.792-2.265,18.132c0.166,3.251,0.723,6.435,1.646,9.464
	c0,0,0,0,0.003,0.002c1.968,6.426,5.417,11.6,9.733,15.108c1.528,9.446,4.414,27.823,4.249,45.028
	c-0.178,18.639-3.868,31.053-10.39,34.957c-3.369,2.016-12.809,4.31-34.699-8.947l-3.239-19.341
	c-8.247-37.841-24.604-69.979-44.091-99.914c-1.642-1.939-3.098-4.009-4.368-6.209c-21.542-26.944-42.307-54.433-85.814-65.927
	c-2.267-0.395-4.532-0.79-6.799-1.185c-32.294-3.028-55.163,7.342-75.98,20.628c-1.939,1.641-4.009,3.097-6.209,4.367
	c-37.688,30.166-67.822,71.077-85.761,129.323c-32.498,23.75-45.207,20.865-49.226,18.43c-6.501-3.939-10.121-16.374-10.196-35.014
	c-0.06-14.958,2.19-30.788,3.817-40.869c6.184-1.839,11.989-6.328,16.255-13.06c0.001-0.001,0.001-0.002,0.001-0.002
	c1.692-2.676,3.073-5.598,4.092-8.689c2.306-6.979,2.526-11.488,2.613-18.086c0.031-2.593,0.024-5.201-0.416-8.603
	c-0.019-0.145-0.036-0.305-0.059-0.479c-0.311-2.646-0.964-8.153-5.739-10.246c-3.141-1.378-7.908-1.346-13.132,6.18
	c-0.151-0.4-0.301-0.798-0.44-1.165c-0.433-1.151-0.922-2.459-1.467-3.781l-0.145-0.353c-1.024-2.48-2.732-6.632-4.309-9.277
	l-0.039-0.067c-1.487-2.499-4.973-8.351-10.41-7.479c-2.139,0.345-3.959,1.546-5.126,3.387c-1.97,3.106-1.734,7.377-1.195,10.409
	l0.086,0.462c0.248,1.37,0.951,5.232,0.427,7.118c-0.797-0.396-1.911-1.117-2.726-1.646c-1.547-1.002-3.302-2.14-5.183-2.878
	c-7.38-2.902-10.877-0.437-12.514,2.143c-0.574,0.908-0.977,1.968-1.195,3.152c-0.682,3.688,1.999,6.888,5.1,10.592
	c0.64,0.764,1.49,1.78,2.222,2.74c-2.953-0.592-7.546-1.331-10.08,2.673c-0.058,0.093-0.116,0.186-0.169,0.284
	c-1.913,3.363-0.914,7.168,0.924,9.444c1.107,1.373,14.426,16.518,22.705,23.182c-1.735,10.638-4.275,28.06-4.208,44.993
	c0.046,11.372,1.271,21.146,3.64,29.052c3.244,10.823,8.741,18.646,16.339,23.251c5.071,3.073,10.787,4.616,17.183,4.616
	c10.292,0,22.347-4.001,36.31-12.032c-0.171,0.726-0.432,1.515-0.413,2.107c-2.583,33.857,5.049,60.531,19.066,82.713
	c1.849,2.235,3.512,4.601,4.991,7.097c10.539,13.026,22.739,24.885,44.156,30.262c1.229,0.461,3.593,0.124,4.089,1.102
	c7.27,1.695,12.714,0.796,18.904,0.956c0.978,11.135,1.058,22.9,2.274,33.867c-4.278,4.102-9.571,7.627-14.899,11.805
	c-5.112,4.01-12.902,8.672-15.489,15.205c-0.242,1.385-0.483,2.77-0.724,4.154c-0.342,8.973,8.34,15.982,17.487,13.553
	c3.058-0.811,7.437-4.672,10.579-7.107c10.113-7.846,21.744-16.631,29.617-24.811c0.087-0.504,0.175-1.008,0.263-1.51
	c0.263-1.512,0.526-3.021,0.789-4.533c-0.452-16.365-2.645-31.508-2.93-47.991c10.934-4.405,25.592-3.516,40.797-1.846
	c1.17-0.694,3.667,0.5,5.354,0.542c1.259,0.22,2.518,0.438,3.777,0.658c4.267,0.095,11.061,1.278,15.109,2.631
	c1.258,0.22,2.518,0.439,3.776,0.658c1.107,0.437,3.338,0.083,3.712,1.036c5.279,1.368,10.515,2.768,15.602,4.272
	c-0.926,8.284-0.881,17.409-1.14,26.656c-0.254,9.1-2.06,18.879-0.695,26.344c0.913,4.994,6.378,11.521,9.276,16.014
	c3.52,5.459,6.848,13.119,13.315,15.162c1.259,0.221,2.519,0.439,3.777,0.658c6.912-0.098,11.551-2.938,13.485-8.16
	c3.234-8.729-2.246-14.477-5.529-19.643c-2.453-3.859-6.467-7.578-6.979-11.334c-0.448-3.285,0.583-7.143,0.643-10.396
	c0.201-10.932,0.607-20.119,0.73-31.008c43.375-4.148,69.137-33.341,82.151-80.654c1.094-1.115,0.854-4.126,1.431-5.978
	c0.176-1.008,0.351-2.016,0.525-3.021c0.146-2.096,1.148-4.793,1.07-6.73c10.782,5.364,20.328,8.04,28.712,8.039
	c6.306,0,11.958-1.51,16.988-4.521c7.623-4.562,13.163-12.354,16.468-23.16c2.413-7.892,3.692-17.659,3.801-29.03
	c0.145-15.136-1.793-30.674-3.402-41.406c9.361-3.586,28.131-15.926,29.643-17.018c2.375-1.709,4.346-5.113,3.391-8.863
	c-0.025-0.108-0.059-0.213-0.09-0.318c-1.385-4.531-6.009-5.033-9.014-5.243c0.959-0.732,2.049-1.487,2.868-2.056
	C1243.301,403.87,1246.731,401.493,1247.05,397.757z"/>
<g>
	<g>
		
			<ellipse transform="matrix(0.9999 0.0135 -0.0135 0.9999 5.615 -12.7818)" fill="#FFFFFF" cx="947.431" cy="408.575" rx="29.303" ry="28.44"/>
	</g>
</g>
<g>
	<g>
		<circle fill="#1E1B1C" cx="947.029" cy="397.751" r="15.514"/>
	</g>
</g>
<g>
	<path fill="#F1608C" d="M995.333,494.321c-0.416,0-0.83-0.003-1.248-0.008c-27.377-0.371-51.026-12.956-52.02-13.491
		c-6.342-3.418-8.711-11.331-5.292-17.672c3.413-6.332,11.308-8.704,17.644-5.308l0,0c0.189,0.102,19.199,10.102,40.021,10.383
		c20.451,0.289,37.764-8.979,37.933-9.073c6.302-3.489,14.241-1.209,17.729,5.095c3.49,6.303,1.209,14.24-5.094,17.729
		C1044.083,482.488,1022.391,494.321,995.333,494.321z"/>
</g>
<g>
	<g>
		<path fill="#FFFFFF" d="M1068.034,410.208c-0.212,15.703-13.502,28.26-29.685,28.04c-16.184-0.219-29.128-13.13-28.916-28.833
			c0.213-15.708,13.503-28.263,29.686-28.043C1055.302,381.591,1068.247,394.5,1068.034,410.208z"/>
	</g>
</g>
<g>
	<g>
		<circle fill="#1E1B1C" cx="1038.332" cy="398.986" r="15.514"/>
	</g>
</g>
<g>
	<path fill="#1E1B1C" d="M995.358,483.985c-0.378,0-0.753-0.002-1.134-0.007c-24.871-0.338-46.353-11.768-47.255-12.254
		c-1.316-0.71-1.809-2.353-1.099-3.67c0.71-1.316,2.353-1.81,3.67-1.099c0.278,0.148,21.29,11.287,44.757,11.604
		c23.503,0.322,42.886-10.259,43.079-10.366c1.309-0.725,2.957-0.251,3.682,1.059c0.725,1.309,0.251,2.957-1.058,3.682
		C1039.174,473.393,1019.751,483.985,995.358,483.985z"/>
</g>
</svg>
