<?xml version="1.0" encoding="utf-8"?>
<!-- Generator: Adobe Illustrator 15.0.0, SVG Export Plug-In . SVG Version: 6.00 Build 0)  -->
<!DOCTYPE svg PUBLIC "-//W3C//DTD SVG 1.1//EN" "http://www.w3.org/Graphics/SVG/1.1/DTD/svg11.dtd">
<svg version="1.1" id="Calque_1" xmlns="http://www.w3.org/2000/svg" xmlns:xlink="http://www.w3.org/1999/xlink" x="0px" y="0px"
	 width="1920px" height="1080px" viewBox="0 0 1920 1080" enable-background="new 0 0 1920 1080" xml:space="preserve">
<g id="u3mvoi_1_">
	<g>
		<path fill="#FFEDD6" d="M876.388,513.224c3.695-1.663,14.306-1.663,18,0C888.388,513.224,882.388,513.224,876.388,513.224z"/>
		<path fill="#FED79E" d="M1505.389,626.225c1.662,4.356,1.662,15.644,0,20C1505.389,639.558,1505.389,632.891,1505.389,626.225z"/>
		<path fill="#FBBB69" d="M688.388,770.225c0,3.333,0,6.666,0,10C686.732,779.146,686.732,771.303,688.388,770.225z"/>
		<path fill="#F1608C" d="M1108.389,814.225c26.812-3.653,49.384,16.373,47,45c-1.643,19.73-22.701,41.805-37,55
			c-63.203,58.328-149.809,93.278-272,92c-56.629-0.594-102.461-14.639-144-38c-17.723-9.968-42.406-24.815-47-44
			c-7.297-30.479,16.695-54.927,46-52c17.741,1.771,31.958,17.771,45,25c77.333,42.864,211.976,25.373,279-16
			c13.564-8.374,27.488-20.088,38-31C1075.85,837.287,1085.75,817.309,1108.389,814.225z"/>
		<path d="M852.814,971.258c-2.016,0-4.022-0.011-6.061-0.031c-47.014-0.491-87.436-11.141-127.209-33.509
			c-7.326-4.12-14.984-8.605-21.357-13.493c-6.354-4.868-8.403-7.877-8.877-8.674c-0.769-3.789,0.481-5.375,0.904-5.91
			c1.331-1.688,3.672-2.653,6.423-2.653c0.394,0,0.798,0.02,1.207,0.059c2.916,0.578,10.278,6.08,14.685,9.373
			c5.238,3.914,10.654,7.961,16.891,11.418c34.454,19.099,79.646,29.191,130.69,29.192c67.3,0.001,137.675-17.634,183.663-46.021
			c15.147-9.352,31.483-22.654,44.821-36.501c4.007-4.159,7.539-8.518,10.657-12.36c6.251-7.709,10.593-12.795,13.86-13.24
			c0.532-0.073,1.055-0.109,1.551-0.109c1.371,0,3.264,0.279,4.488,1.609c1.364,1.482,1.504,3.926,1.368,5.768
			c-0.19,0.842-2.939,11.17-25.87,32.332c-60.334,55.683-139.432,82.75-241.808,82.754
			C852.834,971.258,852.825,971.258,852.814,971.258z"/>
		<path fill="#FFEDD6" d="M1530.389,824.225c1.662,4.025,1.662,14.974,0,19C1530.389,836.891,1530.389,830.558,1530.389,824.225z"/>
		<path fill="#FED79E" d="M1370.389,951.225c-3.04-0.628-8.613,1.279-10-1c3.333,0,6.666,0,10,0
			C1370.389,950.557,1370.389,950.891,1370.389,951.225z"/>
		<path fill="#FBBB69" d="M1370.389,951.225c0-0.334,0-0.668,0-1c3.039,0.627,8.613-1.28,10,1
			C1377.055,951.225,1373.722,951.225,1370.389,951.225z"/>
		<path fill="#FFEDD6" d="M509.388,1035.225c0,5.666,0,11.333,0,17C507.727,1048.859,507.727,1038.59,509.388,1035.225z"/>
		<path fill="#FBBB69" d="M993.389,1284.225c11.006-1.666,28.992-1.666,40,0C1020.055,1284.225,1006.722,1284.225,993.389,1284.225z
			"/>
		<path fill="#FED79E" d="M676.388,614.225c4.249-5.085,8.916-9.752,14-14C686.139,605.309,681.473,609.975,676.388,614.225z"/>
		<path fill="#FFEDD6" d="M597.388,1272.225c4.751,3.915,9.084,8.248,13,13C605.637,1281.309,601.304,1276.976,597.388,1272.225z"/>
		<path fill="#FBBB69" d="M610.388,1285.225c-3.916-4.752-8.249-9.085-13-13c-0.189-0.811-1.003-0.996-1-2
			c5.751,4.916,11.084,10.248,16,16C611.578,1286.034,611.393,1285.221,610.388,1285.225z"/>
		<path fill="#FED79E" d="M1355.389,656.225c4.751,3.915,9.084,8.248,13,13C1363.637,665.309,1359.304,660.976,1355.389,656.225z"/>
		<path fill="#FED79E" d="M1144.389,644.225c5.084,4.248,9.75,8.915,14,14C1153.304,653.975,1148.637,649.309,1144.389,644.225z"/>
		<path fill="#FFB442" d="M894.388,513.224c116.937,10.065,182.593,71.407,250,131c4.248,5.084,8.915,9.75,14,14
			c63.466,68.199,119.875,143.457,158,237c14.33-0.332,25.668,2.33,40,2c6.011,2.322,16.325,0.342,24,1
			c50.429,0.429,92.888-7.111,97-53c1.664-5.685,1.664-18.315,0-24c-5.005-46.33-20.774-81.893-36-118
			c-34.353-1.313-53.6-17.734-73-34c-3.916-4.752-8.249-9.085-13-13c-22.864-15.086-13.789-53.854,23-42
			c-4.323-15.014-16.484-30.848-19-51c0-3.667,0-7.334,0-11c12.995-34.568,41.544,8.946,55,18c6.188-17.586,6.368-43.602,27-43
			c19.361,0.564,18.2,23.524,22,43c6.138-5.034,8.873-16.897,21-17c20.453-0.172,19.009,27.729,20,51c0.638,3.695-1.295,9.961,1,12
			c0,3.333,0,6.666,0,10c0,6.666,0,13.333,0,20c0.994,18.661-5.769,29.564-14,39c17.656,41.677,34.71,83.956,39,139
			c0,6.333,0,12.666,0,19c-5.355,71.646-51.443,102.556-124,107c-4.024,0.643-10.634-1.301-13,1c-4.334,0-8.667,0-13,0
			c-1.387-2.28-6.961-0.373-10-1c-3.334,0-6.667,0-10,0c-2.334,0-4.667,0-7,0c-1.712-2.289-7.634-0.366-11-1c-2.334,0-4.667,0-7,0
			c0.58,14.423,6.992,31.67,6,51c0.654,6.345-1.317,15.318,1,20c0,2.666,0,5.333,0,8c-2.311,3.355-0.351,10.982-1,16
			c-12.27,127.396-65.402,213.933-175,244c4.558,28.033,7.625,51.82,12,80c1.302,8.387,0.379,18.763,3,27
			c2.996,9.423,14.974,17.185,23,26c10.75,11.807,27.404,24.121,23,48c-2.635,14.283-13.282,23.658-31,27c-3.334,0-6.667,0-10,0
			c-17.532-2.357-29.512-20.551-41-33c-9.457-10.248-26.419-24.572-31-37c-6.846-18.567-6.582-44.506-10-68
			c-3.474-23.873-7.672-47.3-9-69c-13.743-1.591-27.821-2.846-42-4c-1.387-2.28-6.961-0.373-10-1c-3.334,0-6.667,0-10,0
			c-11.008-1.666-28.994-1.666-40,0c-3.334,0-6.667,0-10,0c-4.354,0.646-11.305-1.305-14,1c-39.816,2.517-77.879,6.787-104,23
			c8.108,42.226,20.516,80.152,29,122c0,4,0,8,0,12c0,1.333,0,2.666,0,4c-16.566,24.539-42.522,52.316-65,76.999
			c-6.981,7.668-16.506,19.547-24,23c-22.417,10.334-47.86-3.79-51-27c0-3.666,0-7.333,0-11c3.728-17.941,21.657-33.408,33-45.999
			c11.819-13.118,23.841-24.546,33-37c-8.034-27.632-13.505-57.827-21-86c-15.975,2.357-29.561,7.105-49,6
			c-1.711-2.288-7.633-0.366-11-1c-57.435-4.231-94.089-29.243-127-58c-4.916-5.752-10.249-11.084-16-16
			c-45.941-50.724-77.489-115.847-86-204c-0.627-3.04,1.28-8.613-1-10c0-1.334,0-2.667,0-4c0-5.667,0-11.334,0-17
			c0-1.334,0-2.667,0-4c2.304-2.695,0.355-9.646,1-14c15.695-173.969,77.058-302.281,166-403c5.084-4.25,9.751-8.916,14-14
			c47.546-43.454,101.667-80.333,186-87C882.388,513.224,888.388,513.224,894.388,513.224z M989.389,666.225
			c-38.479,6.188-60.74,28.593-66,68c-1.66,2.377-1.66,11.621,0,14c3.686,43.151,42.244,76.48,85,71c43.5-5.578,72.743-50.254,63-94
			c-5.911-26.537-33.343-56.587-67-59C1001.682,664.562,992.095,664.562,989.389,666.225z M841.388,767.225
			c-4.536-39.369-35.741-63.644-68-67c-42.649-4.438-81.097,27.341-85,70c-1.655,1.078-1.655,8.922,0,10
			c5.187,40.48,28.452,62.881,68,69c3.036,1.661,12.964,1.661,16,0c39.433-6.233,63.307-28.027,69-68
			C843.048,778.846,843.048,769.602,841.388,767.225z M1063.389,850.225c-10.512,10.912-24.436,22.626-38,31
			c-67.024,41.373-201.667,58.864-279,16c-13.042-7.229-27.259-23.229-45-25c-29.305-2.927-53.297,21.521-46,52
			c4.594,19.185,29.277,34.032,47,44c41.539,23.361,87.371,37.406,144,38c122.192,1.278,208.797-33.672,272-92
			c14.299-13.195,35.357-35.27,37-55c2.384-28.627-20.188-48.653-47-45C1085.75,817.309,1075.85,837.287,1063.389,850.225z"/>
		<path fill="#FFFFFF" d="M1004.389,666.225c33.657,2.413,61.09,32.463,67,59c9.743,43.746-19.5,88.422-63,94
			c-42.757,5.48-81.315-27.849-85-71c0-4.667,0-9.334,0-14c5.26-39.407,27.521-61.812,66-68
			C994.389,666.225,999.389,666.225,1004.389,666.225z"/>
		<path fill="#FBBB69" d="M1359.389,552.225c0,3.666,0,7.333,0,11C1357.73,561.824,1357.73,553.625,1359.389,552.225z"/>
		<path fill="#FBBB69" d="M1504.389,604.225c2.295,2.038,0.361,8.306,1,12C1503.094,614.186,1505.025,607.92,1504.389,604.225z"/>
		<path fill="#FED79E" d="M989.389,666.225c2.706-1.662,12.293-1.662,15,0C999.389,666.225,994.389,666.225,989.389,666.225z"/>
		<path fill="#FBBB69" d="M923.388,734.225c0,4.666,0,9.333,0,14C921.729,745.846,921.729,736.602,923.388,734.225z"/>
		<path fill="#FED79E" d="M841.388,767.225c1.66,2.377,1.66,11.621,0,14C841.388,776.558,841.388,771.891,841.388,767.225z"/>
		<path fill="#FED79E" d="M1342.389,949.225c3.366,0.634,9.288-1.289,11,1C1350.021,949.591,1344.1,951.513,1342.389,949.225z"/>
		<path fill="#FBBB69" d="M1393.389,951.225c2.366-2.301,8.976-0.357,13-1C1404.021,952.524,1397.413,950.582,1393.389,951.225z"/>
		<path fill="#FED79E" d="M510.388,1017.225c-0.645,4.354,1.305,11.305-1,14C510.033,1026.869,508.084,1019.92,510.388,1017.225z"/>
		<path fill="#FED79E" d="M1342.389,1028.225c-0.649,5.018,1.312,12.645-1,16C1342.038,1039.207,1340.078,1031.58,1342.389,1028.225
			z"/>
		<path fill="#FBBB69" d="M509.388,1056.225c2.28,1.387,0.373,6.96,1,10C508.108,1064.838,510.016,1059.264,509.388,1056.225z"/>
		<path fill="#FED79E" d="M969.389,1285.225c2.695-2.305,9.646-0.354,14-1C980.692,1286.528,973.743,1284.579,969.389,1285.225z"/>
		<path fill="#FED79E" d="M1043.389,1284.225c3.039,0.627,8.613-1.28,10,1C1050.349,1284.597,1044.774,1286.504,1043.389,1284.225z"
			/>
		<path fill="#FBBB69" d="M739.388,1344.225c3.367,0.634,9.289-1.289,11,1C747.021,1344.591,741.1,1346.513,739.388,1344.225z"/>
		<path fill="#FBBB69" d="M894.388,1430.225c1.658,1.726,1.658,10.275,0,12C894.388,1438.225,894.388,1434.225,894.388,1430.225z"/>
		<path fill="#FED79E" d="M1186.389,1496.225c3.333,0,6.666,0,10,0C1195.311,1497.879,1187.467,1497.879,1186.389,1496.225z"/>
		<path fill="#FED79E" d="M754.388,1508.224c0,3.667,0,7.334,0,11C752.73,1517.823,752.73,1509.624,754.388,1508.224z"/>
		<path fill="#FFFFFF" d="M688.388,770.225c3.903-42.659,42.351-74.438,85-70c32.259,3.356,63.464,27.631,68,67
			c0,4.666,0,9.333,0,14c-5.693,39.973-29.567,61.767-69,68c-5.333,0-10.667,0-16,0c-39.548-6.119-62.813-28.52-68-69
			C688.388,776.891,688.388,773.558,688.388,770.225z"/>
		<path fill="#FFEDD6" d="M1356.389,897.225c7.674,0.658,17.988-1.322,24,1C1372.714,897.565,1362.398,899.547,1356.389,897.225z"/>
		<path fill="#FED79E" d="M1477.389,821.225c1.664,5.685,1.664,18.315,0,24C1477.389,837.225,1477.389,829.225,1477.389,821.225z"/>
		<path fill="#FED79E" d="M756.388,849.225c5.333,0,10.667,0,16,0C769.354,850.886,759.424,850.886,756.388,849.225z"/>
		<path fill="#FBBB69" d="M1341.389,1000.225c2.318,4.683,0.345,13.654,1,20C1340.07,1015.543,1342.043,1006.568,1341.389,1000.225z
			"/>
	</g>
</g>
<g>
	<path d="M1035.927,732.611c3.108,21.785-12.03,41.968-33.818,45.078c-21.791,3.11-41.97-12.027-45.08-33.815
		c-3.11-21.787,12.023-41.972,33.816-45.082C1012.633,695.684,1032.816,710.824,1035.927,732.611z"/>
</g>
<g>
	<path d="M803.838,764.594c3.108,21.786-12.031,41.969-33.818,45.079c-21.791,3.111-41.971-12.028-45.08-33.814
		c-3.11-21.787,12.023-41.974,33.816-45.082C780.544,727.666,800.729,742.807,803.838,764.594z"/>
</g>
</svg>
