<?xml version="1.0" encoding="utf-8"?>
<!-- Generator: Adobe Illustrator 15.0.0, SVG Export Plug-In . SVG Version: 6.00 Build 0)  -->
<!DOCTYPE svg PUBLIC "-//W3C//DTD SVG 1.1//EN" "http://www.w3.org/Graphics/SVG/1.1/DTD/svg11.dtd">
<svg version="1.1" id="Calque_1" xmlns="http://www.w3.org/2000/svg" xmlns:xlink="http://www.w3.org/1999/xlink" x="0px" y="0px"
	 width="1920px" height="1080px" viewBox="0 0 1920 1080" enable-background="new 0 0 1920 1080" xml:space="preserve">
<g>
	<path fill="#FFB442" d="M1513.344,807.155c-1.276-3.146-4.866-4.662-8.005-3.383c-5.157,2.093-9.313,3.729-12.416,4.907
		c-1.827-19.284-8.084-31.671-18.289-36.024c-1.168-0.498-2.478-0.919-3.922-1.206c0.017-2.493-0.126-4.986-0.369-7.457
		c-0.332-3.371-1.418-7.419-3.146-11.854c6.005,1.236,11.039,1.692,15.149,1.332c5.143-0.449,8.871-2.152,11.35-5.119
		c7.151-8.552,0.055-23.367-5.647-35.271c-0.103-0.214-0.202-0.423-0.304-0.636c1.185-1.197,2.047-2.69,2.475-4.431
		c0.848-3.444-0.72-15.436-0.879-16.337c-0.221-1.28-1.2-2.726-2.882-3.068c-0.049-0.012-0.097-0.02-0.144-0.028
		c-2.079-0.322-3.175,1.427-3.84,2.586c-0.106-0.524-0.198-1.106-0.266-1.542c-0.33-2.119-0.616-3.949-2.046-4.8
		c-0.46-0.272-0.932-0.448-1.402-0.521c-1.34-0.207-3.186,0.24-4.373,3.552c-0.304,0.845-0.437,1.763-0.554,2.571
		c-0.062,0.428-0.146,1.011-0.247,1.393c-0.783-0.377-1.867-1.74-2.252-2.224l-0.13-0.164c-0.855-1.065-2.212-2.393-3.825-2.644
		c-0.955-0.147-1.888,0.109-2.63,0.723c-1.879,1.561-0.943,4.436-0.544,5.663l0.011,0.032c0.423,1.3,1.31,3.083,1.839,4.15
		l0.075,0.15c0.282,0.569,0.576,1.114,0.834,1.596c0.082,0.154,0.171,0.32,0.261,0.487c-4.039-0.455-5.443,1.127-5.903,2.579
		c-0.695,2.206,0.952,4.034,1.747,4.91c0.05,0.059,0.098,0.112,0.142,0.16c1.006,1.142,1.876,1.905,2.751,2.653
		c2.229,1.899,3.798,3.144,6.804,4.414c1.329,0.562,2.708,0.955,4.097,1.173c0,0,0,0.001,0.001,0c0.83,0.129,1.643,0.19,2.432,0.191
		c0.207,0.431,0.413,0.862,0.625,1.306c2.479,5.175,5.288,11.039,6.77,16.159c1.341,4.641,1.373,7.903,0.092,9.436
		c-0.929,1.11-5.437,4.304-24.475-0.869c-13.589-25.085-42.359-55.015-72.254-51.146c-39.478,5.11-49.345,48.724-43.772,83.701
		c-7.87-0.938-13.596,0.595-17.305,4.622c-8.558,9.293-1.943,27.813,4.685,42.127c-0.638,0.591-1.211,1.27-1.688,2.053
		c-1.847,3.029-3.961,14.936-4.081,15.843c-0.174,1.287,0.323,2.96,1.824,3.795c0.043,0.024,0.087,0.046,0.129,0.069
		c1.885,0.934,3.457-0.404,4.439-1.31c-0.057,0.532-0.145,1.114-0.212,1.551c-0.322,2.119-0.6,3.95,0.508,5.192
		c0.355,0.398,0.753,0.708,1.18,0.92c1.215,0.601,3.109,0.731,5.239-2.069c0.543-0.714,0.946-1.55,1.301-2.286
		c0.188-0.389,0.445-0.919,0.655-1.252c0.634,0.595,1.257,2.222,1.479,2.798l0.072,0.194c0.495,1.274,1.391,2.948,2.853,3.673
		c0.867,0.429,1.834,0.466,2.723,0.104c2.266-0.922,2.238-3.944,2.227-5.234v-0.035c-0.012-1.366-0.32-3.334-0.505-4.511
		l-0.026-0.166c-0.098-0.628-0.214-1.235-0.315-1.772c-0.033-0.172-0.067-0.357-0.102-0.544c3.715,1.65,5.53,0.564,6.405-0.682
		c1.328-1.894,0.307-4.133-0.186-5.207c-0.031-0.071-0.062-0.137-0.089-0.195c-0.615-1.392-1.215-2.383-1.823-3.359
		c-1.554-2.481-2.677-4.141-5.159-6.256c-1.099-0.938-2.296-1.729-3.553-2.354c0,0,0-0.002-0.002,0
		c-1.503-0.745-3.021-1.217-4.497-1.432c-11.068-23.553-9.078-31.13-6.852-33.549c1.054-1.144,4.138-2.988,12.598-1.317
		c3.406,13.538,9.189,24.895,16.381,30.797c9.833,8.069,20.648,11.103,31.701,11.128l0.761,29.074
		c0.085,3.256,2.695,5.881,5.952,5.981l17.59,0.546c0.048,0.002,0.095,0.003,0.142,0.004c3.329,0.028,6.088-2.609,6.192-5.955
		c0.105-3.392-2.56-6.228-5.952-6.333l-11.789-0.366l-0.63-24.054c10.371-1.91,18.753-6.359,25.095-12.379
		c0.065-0.021,0.131-0.04,0.195-0.06c22.241-6.998,31.653-17.254,35.12-28.387c0.29,0.084,0.575,0.178,0.85,0.295
		c6.55,2.795,10.781,15.201,11.32,33.188c0.059,2.012,1.12,3.899,2.806,4.998c2.339,1.525,4.628,1.045,6.562,0.445
		c0.255-0.079,0.506-0.161,0.749-0.24c1.213-0.396,2.889-0.994,4.98-1.78c3.552-1.335,8.429-3.255,13.733-5.408
		C1513.106,813.884,1514.621,810.3,1513.344,807.155z"/>
	<g>
		<g>
			
				<ellipse transform="matrix(0.8855 -0.4647 0.4647 0.8855 -174.3551 745.5375)" fill="#FFFFFF" cx="1425.292" cy="726.482" rx="13.805" ry="13.398"/>
		</g>
	</g>
	<g>
		<g>
			<circle cx="1429.297" cy="725.797" r="7.308"/>
		</g>
	</g>
	<g>
		<g>
			
				<ellipse transform="matrix(0.8855 -0.4647 0.4647 0.8855 -184.2789 730.9067)" fill="#FFFFFF" cx="1390.596" cy="739.286" rx="13.804" ry="13.397"/>
		</g>
	</g>
	<g>
		<g>
			<circle cx="1394.601" cy="738.601" r="7.308"/>
		</g>
	</g>
	<g>
		<g>
			<path fill="#F1608C" d="M1416.162,770.489c-3.053,0.267-5.894-1.783-6.541-4.856c-0.698-3.317,1.42-6.572,4.733-7.277
				c0.159-0.035,10.004-2.227,17.559-8.441c2.622-2.155,6.493-1.778,8.649,0.843c2.156,2.62,1.779,6.493-0.842,8.649
				c-9.963,8.195-22.299,10.863-22.82,10.972C1416.654,770.432,1416.407,770.468,1416.162,770.489z"/>
		</g>
		<g>
			<path d="M1416.07,766.193c-1.014,0.132-1.974-0.4-2.213-1.264c-0.257-0.934,0.423-1.9,1.523-2.16
				c0.184-0.044,10.852-2.646,19.041-8.983c0.854-0.662,2.145-0.625,2.882,0.082c0.737,0.709,0.641,1.817-0.214,2.48
				c-8.998,6.964-20.297,9.688-20.774,9.801C1416.232,766.169,1416.15,766.184,1416.07,766.193z"/>
		</g>
	</g>
</g>
<polygon fill="#E0E0FF" points="1921,1132.021 1921,704.947 1827.583,704.947 1827.583,733.217 1752.604,733.217 1752.604,761.488 
	1677.625,761.488 1677.625,789.759 1602.646,789.759 1602.646,818.029 1527.666,818.029 1527.666,846.301 1452.687,846.301 
	1452.687,874.571 1377.707,874.571 1377.707,902.843 1302.728,902.843 1302.728,931.113 1227.748,931.113 1227.748,959.385 
	1152.769,959.385 1152.769,987.655 1077.789,987.655 1077.789,1015.926 1002.81,1015.926 1002.81,1044.196 927.83,1044.196 
	927.83,1072.468 852.851,1072.468 852.851,1132.689 "/>
</svg>
