<?xml version="1.0" encoding="utf-8"?>
<!-- Generator: Adobe Illustrator 15.0.0, SVG Export Plug-In . SVG Version: 6.00 Build 0)  -->
<!DOCTYPE svg PUBLIC "-//W3C//DTD SVG 1.1//EN" "http://www.w3.org/Graphics/SVG/1.1/DTD/svg11.dtd">
<svg version="1.1" id="Calque_1" xmlns="http://www.w3.org/2000/svg" xmlns:xlink="http://www.w3.org/1999/xlink" x="0px" y="0px"
	 width="80px" height="80px" viewBox="0 0 80 80" enable-background="new 0 0 80 80" xml:space="preserve">
<g>
	<g>
		<g>
			<path fill="#FFFFFF" d="M39.986,69.512c16.396,0,29.685-13.291,29.685-29.685c0-16.395-13.289-29.684-29.685-29.684
				c-16.395,0-29.684,13.289-29.684,29.684C10.303,56.221,23.592,69.512,39.986,69.512"/>
		</g>
	</g>
</g>
<g>
	<path fill="#62BDE5" d="M28.437,49.525V31.269h6.272c1.008,0,1.95,0.098,2.828,0.294c0.877,0.196,1.643,0.523,2.296,0.98
		c0.653,0.458,1.171,1.064,1.554,1.82c0.383,0.756,0.574,1.685,0.574,2.786c0,1.064-0.191,1.988-0.574,2.772
		s-0.901,1.429-1.554,1.933s-1.409,0.877-2.268,1.119c-0.859,0.243-1.774,0.364-2.744,0.364h-2.268v6.188H28.437z M32.553,40.061
		h2.016c2.24,0,3.36-0.971,3.36-2.912c0-0.952-0.299-1.624-0.896-2.016c-0.598-0.392-1.456-0.588-2.576-0.588h-1.904V40.061z"/>
	<path fill="#62BDE5" d="M47.197,49.861c-0.915,0-1.854-0.178-2.814-0.532s-1.797-0.821-2.506-1.4l1.848-2.575
		c0.635,0.484,1.242,0.85,1.82,1.092s1.166,0.363,1.764,0.363c0.617,0,1.064-0.102,1.344-0.308c0.281-0.205,0.421-0.495,0.421-0.868
		c0-0.225-0.079-0.424-0.238-0.602s-0.374-0.341-0.644-0.49c-0.271-0.149-0.574-0.285-0.91-0.406s-0.682-0.256-1.036-0.406
		c-0.43-0.168-0.858-0.363-1.288-0.588c-0.43-0.224-0.822-0.499-1.176-0.826c-0.355-0.326-0.645-0.709-0.868-1.147
		s-0.336-0.947-0.336-1.526c0-0.635,0.126-1.223,0.378-1.764c0.252-0.541,0.611-0.999,1.078-1.372
		c0.467-0.373,1.026-0.667,1.68-0.882c0.653-0.214,1.381-0.322,2.184-0.322c1.064,0,1.998,0.182,2.801,0.546
		c0.803,0.364,1.502,0.77,2.1,1.218l-1.848,2.464c-0.504-0.373-0.999-0.662-1.484-0.868s-0.971-0.308-1.455-0.308
		c-1.047,0-1.568,0.364-1.568,1.092c0,0.224,0.074,0.416,0.224,0.574s0.351,0.304,0.603,0.434s0.541,0.256,0.867,0.378
		s0.668,0.247,1.022,0.378c0.448,0.168,0.892,0.359,1.33,0.574s0.84,0.48,1.204,0.798c0.363,0.317,0.658,0.704,0.882,1.161
		c0.224,0.459,0.336,1.004,0.336,1.639s-0.122,1.223-0.364,1.764c-0.242,0.542-0.606,1.014-1.092,1.414
		c-0.486,0.402-1.083,0.719-1.792,0.952C48.951,49.744,48.131,49.861,47.197,49.861z"/>
</g>
<g>
	<path fill="#62BDE5" d="M39.986,66.137c-14.507,0-26.309-11.803-26.309-26.309c0-14.507,11.802-26.309,26.309-26.309
		s26.309,11.802,26.309,26.309C66.295,54.334,54.493,66.137,39.986,66.137z M39.986,17.578c-12.269,0-22.25,9.981-22.25,22.25
		c0,12.268,9.981,22.249,22.25,22.249s22.25-9.98,22.25-22.249C62.236,27.559,52.255,17.578,39.986,17.578z"/>
</g>
</svg>
