<?xml version="1.0" encoding="utf-8"?>
<!-- Generator: Adobe Illustrator 15.0.0, SVG Export Plug-In . SVG Version: 6.00 Build 0)  -->
<!DOCTYPE svg PUBLIC "-//W3C//DTD SVG 1.1//EN" "http://www.w3.org/Graphics/SVG/1.1/DTD/svg11.dtd">
<svg version="1.1" id="Calque_1" xmlns="http://www.w3.org/2000/svg" xmlns:xlink="http://www.w3.org/1999/xlink" x="0px" y="0px"
	 width="80px" height="80px" viewBox="0 0 80 80" enable-background="new 0 0 80 80" xml:space="preserve">
<g>
	<g>
		<g>
			<path fill="#FFFFFF" d="M-157.979,195.512c16.395,0,29.685-13.291,29.685-29.684c0-16.395-13.29-29.685-29.685-29.685
				s-29.684,13.29-29.684,29.685C-187.664,182.221-174.375,195.512-157.979,195.512"/>
		</g>
	</g>
</g>
<g>
	<path fill="#B969A8" d="M-172.707,175.621l5.067-9.381l-4.76-8.875h4.592l1.597,3.443c0.205,0.43,0.41,0.882,0.615,1.357
		c0.205,0.477,0.438,1.004,0.7,1.582h0.112c0.205-0.578,0.406-1.105,0.602-1.582c0.196-0.476,0.388-0.928,0.574-1.357l1.456-3.443
		h4.396l-4.731,9.071l5.04,9.185h-4.592l-1.82-3.725c-0.224-0.484-0.443-0.966-0.658-1.441c-0.215-0.477-0.452-0.994-0.714-1.555
		h-0.112c-0.205,0.561-0.41,1.078-0.615,1.555c-0.206,0.476-0.411,0.957-0.616,1.441l-1.708,3.725H-172.707z"/>
	<path fill="#B969A8" d="M-152.212,175.957c-0.858,0-1.638-0.168-2.338-0.504s-1.298-0.816-1.792-1.442s-0.877-1.386-1.147-2.282
		c-0.271-0.896-0.406-1.913-0.406-3.052s0.163-2.156,0.49-3.052c0.326-0.896,0.756-1.656,1.288-2.282
		c0.531-0.626,1.147-1.106,1.848-1.442s1.414-0.504,2.142-0.504c0.784,0,1.429,0.131,1.933,0.393s0.998,0.615,1.483,1.063
		l-0.168-2.128v-4.732h4.116v19.629h-3.36l-0.279-1.373h-0.112c-0.485,0.486-1.055,0.893-1.708,1.219
		S-151.539,175.957-152.212,175.957z M-151.147,172.597c0.448,0,0.854-0.093,1.218-0.28c0.364-0.186,0.714-0.514,1.05-0.98v-5.684
		c-0.373-0.336-0.756-0.568-1.147-0.699c-0.393-0.131-0.775-0.196-1.148-0.196c-0.653,0-1.231,0.312-1.735,0.938
		c-0.505,0.625-0.757,1.6-0.757,2.926c0,1.381,0.22,2.389,0.658,3.023S-151.95,172.597-151.147,172.597z"/>
</g>
<g>
	<path fill="#B969A8" d="M-157.979,192.137c-14.507,0-26.309-11.803-26.309-26.309c0-14.507,11.802-26.309,26.309-26.309
		c1.121,0,2.03,0.908,2.03,2.029s-0.909,2.029-2.03,2.029c-12.269,0-22.25,9.981-22.25,22.25c0,12.268,9.981,22.248,22.25,22.248
		s22.25-9.98,22.25-22.248c0-5.943-2.314-11.53-6.517-15.732c-0.792-0.793-0.792-2.078,0-2.871c0.793-0.792,2.078-0.792,2.871,0
		c4.969,4.969,7.705,11.576,7.705,18.604C-131.67,180.334-143.472,192.137-157.979,192.137z"/>
</g>
<g>
	<g>
		<g>
			<path fill="#FFFFFF" d="M41.38,69.684c16.395,0,29.684-13.29,29.684-29.683c0-16.396-13.289-29.685-29.684-29.685
				S11.696,23.605,11.696,40C11.696,56.394,24.985,69.684,41.38,69.684"/>
		</g>
	</g>
</g>
<g>
	<path fill="#E6D837" d="M24.454,47.35V33.658h4.703c0.757,0,1.463,0.073,2.121,0.22s1.232,0.392,1.723,0.735
		s0.879,0.798,1.166,1.365c0.286,0.567,0.43,1.264,0.43,2.089c0,0.798-0.144,1.491-0.43,2.079c-0.287,0.588-0.676,1.071-1.166,1.449
		s-1.057,0.658-1.701,0.84s-1.33,0.273-2.059,0.273h-1.7v4.641H24.454z M27.541,40.251h1.512c1.681,0,2.521-0.728,2.521-2.184
		c0-0.714-0.225-1.218-0.672-1.512c-0.449-0.294-1.092-0.441-1.933-0.441h-1.428V40.251z"/>
	<path fill="#E6D837" d="M35.92,47.35V33.658h3.087v5.271h4.725v-5.271h3.108V47.35h-3.108v-5.712h-4.725v5.712H35.92z"/>
	<path fill="#E6D837" d="M49.023,47.35V33.658h4.704c0.756,0,1.463,0.073,2.121,0.22s1.231,0.392,1.722,0.735
		c0.489,0.343,0.878,0.798,1.165,1.365s0.431,1.264,0.431,2.089c0,0.798-0.144,1.491-0.431,2.079s-0.676,1.071-1.165,1.449
		c-0.49,0.378-1.058,0.658-1.701,0.84s-1.33,0.273-2.058,0.273H52.11v4.641H49.023z M52.11,40.251h1.512
		c1.68,0,2.52-0.728,2.52-2.184c0-0.714-0.224-1.218-0.672-1.512c-0.447-0.294-1.092-0.441-1.932-0.441H52.11V40.251z"/>
</g>
<g>
	<path fill="#E6D837" d="M41.38,66.309c-14.507,0-26.309-11.802-26.309-26.309S26.873,13.691,41.38,13.691
		c1.121,0,2.029,0.909,2.029,2.03s-0.908,2.03-2.029,2.03c-12.269,0-22.25,9.981-22.25,22.25s9.981,22.25,22.25,22.25
		c1.121,0,2.029,0.908,2.029,2.029S42.501,66.309,41.38,66.309z"/>
</g>
</svg>
